<?xml version="1.0" encoding="UTF-8" standalone="no"?>
<!DOCTYPE svg PUBLIC "-//W3C//DTD SVG 1.1//EN"
 "http://www.w3.org/Graphics/SVG/1.1/DTD/svg11.dtd">
<!-- Generated by graphviz version 2.40.1 (20161225.0304)
 -->
<!-- Title: G Pages: 1 -->
<svg width="1380pt" height="553pt"
 viewBox="0.00 0.00 1380.00 553.00" xmlns="http://www.w3.org/2000/svg" xmlns:xlink="http://www.w3.org/1999/xlink">
<g id="graph0" class="graph" transform="scale(1 1) rotate(0) translate(4 549)">
<title>G</title>
<polygon fill="#ffffff" stroke="transparent" points="-4,4 -4,-549 1376,-549 1376,4 -4,4"/>
<g id="clust1" class="cluster">
<title>cluster_root</title>
<g id="a_clust1"><a xlink:title="eventq_index=0&#10;full_system=false&#10;sim_quantum=0&#10;time_sync_enable=false&#10;time_sync_period=100000000000&#10;time_sync_spin_threshold=100000000">
<path fill="#bab6ae" stroke="#000000" d="M20,-8C20,-8 1352,-8 1352,-8 1358,-8 1364,-14 1364,-20 1364,-20 1364,-525 1364,-525 1364,-531 1358,-537 1352,-537 1352,-537 20,-537 20,-537 14,-537 8,-531 8,-525 8,-525 8,-20 8,-20 8,-14 14,-8 20,-8"/>
<text text-anchor="middle" x="686" y="-521.8" font-family="Arial" font-size="14.00" fill="#000000">root </text>
<text text-anchor="middle" x="686" y="-506.8" font-family="Arial" font-size="14.00" fill="#000000">: Root</text>
</a>
</g>
</g>
<g id="clust2" class="cluster">
<title>cluster_system</title>
<g id="a_clust2"><a xlink:title="boot_osflags=a&#10;cache_line_size=64&#10;eventq_index=0&#10;exit_on_work_items=false&#10;init_param=0&#10;kernel=&#10;kernel_addr_check=true&#10;kernel_extras=&#10;&#10;oad_addr_mask=18446744073709551615&#10;&#10;oad_offset=0&#10;mem_mode=timing&#10;mem_ranges=0:2147483647&#10;memories=system.mem_ctrls0 system.mem_ctrls1&#10;mmap_using_noreserve=false&#10;multi_thread=false&#10;&#10;um_work_ids=16&#10;&#13;eadfile=&#10;&#13;edirect_paths=&#10;symbolfile=&#10;thermal_components=&#10;thermal_model=Null&#10;work_begin_ckpt_count=0&#10;work_begin_cpu_id_exit=&#45;1&#10;work_begin_exit_count=0&#10;work_cpus_ckpt_count=0&#10;work_end_ckpt_count=0&#10;work_end_exit_count=0&#10;work_item_id=&#45;1">
<path fill="#e4e7eb" stroke="#000000" d="M28,-16C28,-16 1344,-16 1344,-16 1350,-16 1356,-22 1356,-28 1356,-28 1356,-479 1356,-479 1356,-485 1350,-491 1344,-491 1344,-491 28,-491 28,-491 22,-491 16,-485 16,-479 16,-479 16,-28 16,-28 16,-22 22,-16 28,-16"/>
<text text-anchor="middle" x="686" y="-475.8" font-family="Arial" font-size="14.00" fill="#000000">system </text>
<text text-anchor="middle" x="686" y="-460.8" font-family="Arial" font-size="14.00" fill="#000000">: SimpleSeSystem</text>
</a>
</g>
</g>
<g id="clust3" class="cluster">
<title>cluster_system_membus</title>
<g id="a_clust3"><a xlink:title="clk_domain=system.clk_domain&#10;default_p_state=UNDEFINED&#10;eventq_index=0&#10;forward_latency=4&#10;frontend_latency=3&#10;max_outstanding_snoops=512&#10;max_routing_table_size=512&#10;p_state_clk_gate_bins=20&#10;p_state_clk_gate_max=1000000000000&#10;p_state_clk_gate_min=1000&#10;point_of_coherency=true&#10;point_of_unification=true&#10;power_model=&#10;&#13;esponse_latency=2&#10;snoop_filter=system.membus.snoop_filter&#10;snoop_response_latency=4&#10;system=system&#10;use_default_range=false&#10;width=16">
<path fill="#6f798c" stroke="#000000" d="M168,-171C168,-171 294,-171 294,-171 300,-171 306,-177 306,-183 306,-183 306,-250 306,-250 306,-256 300,-262 294,-262 294,-262 168,-262 168,-262 162,-262 156,-256 156,-250 156,-250 156,-183 156,-183 156,-177 162,-171 168,-171"/>
<text text-anchor="middle" x="231" y="-246.8" font-family="Arial" font-size="14.00" fill="#000000">membus </text>
<text text-anchor="middle" x="231" y="-231.8" font-family="Arial" font-size="14.00" fill="#000000">: SystemXBar</text>
</a>
</g>
</g>
<g id="clust7" class="cluster">
<title>cluster_system_cpu_cluster</title>
<g id="a_clust7"><a xlink:title="eventq_index=0&#10;thermal_domain=Null">
<path fill="#bab6ae" stroke="#000000" d="M326,-24C326,-24 1336,-24 1336,-24 1342,-24 1348,-30 1348,-36 1348,-36 1348,-388 1348,-388 1348,-394 1342,-400 1336,-400 1336,-400 326,-400 326,-400 320,-400 314,-394 314,-388 314,-388 314,-36 314,-36 314,-30 320,-24 326,-24"/>
<text text-anchor="middle" x="831" y="-384.8" font-family="Arial" font-size="14.00" fill="#000000">cpu_cluster </text>
<text text-anchor="middle" x="831" y="-369.8" font-family="Arial" font-size="14.00" fill="#000000">: CpuCluster</text>
</a>
</g>
</g>
<g id="clust8" class="cluster">
<title>cluster_system_cpu_cluster_toL2Bus</title>
<g id="a_clust8"><a xlink:title="clk_domain=system.cpu_cluster.clk_domain&#10;default_p_state=UNDEFINED&#10;eventq_index=0&#10;forward_latency=0&#10;frontend_latency=1&#10;max_outstanding_snoops=512&#10;max_routing_table_size=512&#10;p_state_clk_gate_bins=20&#10;p_state_clk_gate_max=1000000000000&#10;p_state_clk_gate_min=1000&#10;point_of_coherency=false&#10;point_of_unification=true&#10;power_model=&#10;&#13;esponse_latency=1&#10;snoop_filter=system.cpu_cluster.toL2Bus.snoop_filter&#10;snoop_response_latency=1&#10;system=system&#10;use_default_range=false&#10;width=64">
<path fill="#6f798c" stroke="#000000" d="M378,-171C378,-171 504,-171 504,-171 510,-171 516,-177 516,-183 516,-183 516,-250 516,-250 516,-256 510,-262 504,-262 504,-262 378,-262 378,-262 372,-262 366,-256 366,-250 366,-250 366,-183 366,-183 366,-177 372,-171 378,-171"/>
<text text-anchor="middle" x="441" y="-246.8" font-family="Arial" font-size="14.00" fill="#000000">toL2Bus </text>
<text text-anchor="middle" x="441" y="-231.8" font-family="Arial" font-size="14.00" fill="#000000">: L2XBar</text>
</a>
</g>
</g>
<g id="clust11" class="cluster">
<title>cluster_system_cpu_cluster_l2</title>
<g id="a_clust11"><a xlink:title="addr_ranges=0:18446744073709551615&#10;assoc=16&#10;clk_domain=system.cpu_cluster.clk_domain&#10;clusivity=mostly_excl&#10;compressor=Null&#10;data_latency=12&#10;default_p_state=UNDEFINED&#10;demand_mshr_reserve=1&#10;eventq_index=0&#10;is_read_only=false&#10;max_miss_count=0&#10;mshrs=32&#10;p_state_clk_gate_bins=20&#10;p_state_clk_gate_max=1000000000000&#10;p_state_clk_gate_min=1000&#10;power_model=&#10;prefetch_on_access=false&#10;prefetcher=Null&#10;&#13;eplacement_policy=system.cpu_cluster.l2.replacement_policy&#10;&#13;esponse_latency=5&#10;sequential_access=false&#10;size=1048576&#10;system=system&#10;tag_latency=12&#10;tags=system.cpu_cluster.l2.tags&#10;tgts_per_mshr=8&#10;warmup_percentage=0&#10;write_allocator=Null&#10;write_buffers=8&#10;writeback_clean=false">
<path fill="#9f9c95" stroke="#000000" d="M334,-40C334,-40 504,-40 504,-40 510,-40 516,-46 516,-52 516,-52 516,-119 516,-119 516,-125 510,-131 504,-131 504,-131 334,-131 334,-131 328,-131 322,-125 322,-119 322,-119 322,-52 322,-52 322,-46 328,-40 334,-40"/>
<text text-anchor="middle" x="419" y="-115.8" font-family="Arial" font-size="14.00" fill="#000000">l2 </text>
<text text-anchor="middle" x="419" y="-100.8" font-family="Arial" font-size="14.00" fill="#000000">: L2</text>
</a>
</g>
</g>
<g id="clust16" class="cluster">
<title>cluster_system_cpu_cluster_cpus</title>
<g id="a_clust16"><a xlink:title="branchPred=system.cpu_cluster.cpus.branchPred&#10;checker=Null&#10;clk_domain=system.cpu_cluster.clk_domain&#10;cpu_id=0&#10;decodeCycleInput=true&#10;decodeInputBufferSize=3&#10;decodeInputWidth=2&#10;decodeToExecuteForwardDelay=1&#10;default_p_state=UNDEFINED&#10;do_checkpoint_insts=true&#10;do_quiesce=true&#10;do_statistics_insts=true&#10;dtb=system.cpu_cluster.cpus.dtb&#10;enableIdling=true&#10;eventq_index=0&#10;executeAllowEarlyMemoryIssue=true&#10;executeBranchDelay=1&#10;executeCommitLimit=2&#10;executeCycleInput=true&#10;executeFuncUnits=system.cpu_cluster.cpus.executeFuncUnits&#10;executeInputBufferSize=7&#10;executeInputWidth=2&#10;executeIssueLimit=2&#10;executeLSQMaxStoreBufferStoresPerCycle=2&#10;executeLSQRequestsQueueSize=1&#10;executeLSQStoreBufferSize=5&#10;executeLSQTransfersQueueSize=2&#10;executeMaxAccessesInMemory=2&#10;executeMemoryCommitLimit=1&#10;executeMemoryIssueLimit=1&#10;executeMemoryWidth=0&#10;executeSetTraceTimeOnCommit=true&#10;executeSetTraceTimeOnIssue=false&#10;fetch1FetchLimit=1&#10;fetch1LineSnapWidth=0&#10;fetch1LineWidth=0&#10;fetch1ToFetch2BackwardDelay=1&#10;fetch1ToFetch2ForwardDelay=1&#10;fetch2CycleInput=true&#10;fetch2InputBufferSize=2&#10;fetch2ToDecodeForwardDelay=1&#10;function_trace=false&#10;function_trace_start=0&#10;interrupts=system.cpu_cluster.cpus.interrupts&#10;isa=system.cpu_cluster.cpus.isa&#10;itb=system.cpu_cluster.cpus.itb&#10;max_insts_all_threads=0&#10;max_insts_any_thread=0&#10;&#10;umThreads=1&#10;p_state_clk_gate_bins=20&#10;p_state_clk_gate_max=1000000000000&#10;p_state_clk_gate_min=1000&#10;power_gating_on_idle=false&#10;power_model=&#10;profile=0&#10;progress_interval=0&#10;pwr_gating_latency=300&#10;simpoint_start_insts=&#10;socket_id=0&#10;switched_out=false&#10;syscallRetryLatency=10000&#10;system=system&#10;threadPolicy=RoundRobin&#10;tracer=system.cpu_cluster.cpus.tracer&#10;wait_for_remote_gdb=false&#10;workload=system.cpu_cluster.cpus.workload">
<path fill="#bbc6d9" stroke="#000000" d="M536,-32C536,-32 1328,-32 1328,-32 1334,-32 1340,-38 1340,-44 1340,-44 1340,-342 1340,-342 1340,-348 1334,-354 1328,-354 1328,-354 536,-354 536,-354 530,-354 524,-348 524,-342 524,-342 524,-44 524,-44 524,-38 530,-32 536,-32"/>
<text text-anchor="middle" x="932" y="-338.8" font-family="Arial" font-size="14.00" fill="#000000">cpus </text>
<text text-anchor="middle" x="932" y="-323.8" font-family="Arial" font-size="14.00" fill="#000000">: MinorCPU</text>
</a>
</g>
</g>
<g id="clust17" class="cluster">
<title>cluster_system_cpu_cluster_cpus_icache</title>
<g id="a_clust17"><a xlink:title="addr_ranges=0:18446744073709551615&#10;assoc=3&#10;clk_domain=system.cpu_cluster.clk_domain&#10;clusivity=mostly_incl&#10;compressor=Null&#10;data_latency=1&#10;default_p_state=UNDEFINED&#10;demand_mshr_reserve=1&#10;eventq_index=0&#10;is_read_only=true&#10;max_miss_count=0&#10;mshrs=4&#10;p_state_clk_gate_bins=20&#10;p_state_clk_gate_max=1000000000000&#10;p_state_clk_gate_min=1000&#10;power_model=&#10;prefetch_on_access=false&#10;prefetcher=Null&#10;&#13;eplacement_policy=system.cpu_cluster.cpus.icache.replacement_policy&#10;&#13;esponse_latency=1&#10;sequential_access=false&#10;size=49152&#10;system=system&#10;tag_latency=1&#10;tags=system.cpu_cluster.cpus.icache.tags&#10;tgts_per_mshr=8&#10;warmup_percentage=0&#10;write_allocator=Null&#10;write_buffers=8&#10;writeback_clean=true">
<path fill="#bab6ae" stroke="#000000" d="M746,-40C746,-40 916,-40 916,-40 922,-40 928,-46 928,-52 928,-52 928,-119 928,-119 928,-125 922,-131 916,-131 916,-131 746,-131 746,-131 740,-131 734,-125 734,-119 734,-119 734,-52 734,-52 734,-46 740,-40 746,-40"/>
<text text-anchor="middle" x="831" y="-115.8" font-family="Arial" font-size="14.00" fill="#000000">icache </text>
<text text-anchor="middle" x="831" y="-100.8" font-family="Arial" font-size="14.00" fill="#000000">: L1I</text>
</a>
</g>
</g>
<g id="clust21" class="cluster">
<title>cluster_system_cpu_cluster_cpus_dtb</title>
<g id="a_clust21"><a xlink:title="eventq_index=0&#10;is_stage2=false&#10;size=64&#10;sys=system&#10;walker=system.cpu_cluster.cpus.dtb.walker">
<path fill="#bab6ae" stroke="#000000" d="M1198,-163C1198,-163 1319,-163 1319,-163 1325,-163 1331,-169 1331,-175 1331,-175 1331,-296 1331,-296 1331,-302 1325,-308 1319,-308 1319,-308 1198,-308 1198,-308 1192,-308 1186,-302 1186,-296 1186,-296 1186,-175 1186,-175 1186,-169 1192,-163 1198,-163"/>
<text text-anchor="middle" x="1258.5" y="-292.8" font-family="Arial" font-size="14.00" fill="#000000">dtb </text>
<text text-anchor="middle" x="1258.5" y="-277.8" font-family="Arial" font-size="14.00" fill="#000000">: ArmDTB</text>
</a>
</g>
</g>
<g id="clust22" class="cluster">
<title>cluster_system_cpu_cluster_cpus_dtb_walker</title>
<g id="a_clust22"><a xlink:title="clk_domain=system.cpu_cluster.clk_domain&#10;default_p_state=UNDEFINED&#10;eventq_index=0&#10;is_stage2=false&#10;&#10;um_squash_per_cycle=2&#10;p_state_clk_gate_bins=20&#10;p_state_clk_gate_max=1000000000000&#10;p_state_clk_gate_min=1000&#10;power_model=&#10;sys=system">
<path fill="#9f9c95" stroke="#000000" d="M1206,-171C1206,-171 1311,-171 1311,-171 1317,-171 1323,-177 1323,-183 1323,-183 1323,-250 1323,-250 1323,-256 1317,-262 1311,-262 1311,-262 1206,-262 1206,-262 1200,-262 1194,-256 1194,-250 1194,-250 1194,-183 1194,-183 1194,-177 1200,-171 1206,-171"/>
<text text-anchor="middle" x="1258.5" y="-246.8" font-family="Arial" font-size="14.00" fill="#000000">walker </text>
<text text-anchor="middle" x="1258.5" y="-231.8" font-family="Arial" font-size="14.00" fill="#000000">: ArmTableWalker</text>
</a>
</g>
</g>
<g id="clust27" class="cluster">
<title>cluster_system_cpu_cluster_cpus_itb_walker_cache</title>
<g id="a_clust27"><a xlink:title="addr_ranges=0:18446744073709551615&#10;assoc=8&#10;clk_domain=system.cpu_cluster.clk_domain&#10;clusivity=mostly_incl&#10;compressor=Null&#10;data_latency=4&#10;default_p_state=UNDEFINED&#10;demand_mshr_reserve=1&#10;eventq_index=0&#10;is_read_only=true&#10;max_miss_count=0&#10;mshrs=6&#10;p_state_clk_gate_bins=20&#10;p_state_clk_gate_max=1000000000000&#10;p_state_clk_gate_min=1000&#10;power_model=&#10;prefetch_on_access=false&#10;prefetcher=Null&#10;&#13;eplacement_policy=system.cpu_cluster.cpus.itb_walker_cache.replacement_policy&#10;&#13;esponse_latency=4&#10;sequential_access=false&#10;size=1024&#10;system=system&#10;tag_latency=4&#10;tags=system.cpu_cluster.cpus.itb_walker_cache.tags&#10;tgts_per_mshr=8&#10;warmup_percentage=0&#10;write_allocator=Null&#10;write_buffers=16&#10;writeback_clean=true">
<path fill="#bab6ae" stroke="#000000" d="M948,-40C948,-40 1118,-40 1118,-40 1124,-40 1130,-46 1130,-52 1130,-52 1130,-119 1130,-119 1130,-125 1124,-131 1118,-131 1118,-131 948,-131 948,-131 942,-131 936,-125 936,-119 936,-119 936,-52 936,-52 936,-46 942,-40 948,-40"/>
<text text-anchor="middle" x="1033" y="-115.8" font-family="Arial" font-size="14.00" fill="#000000">itb_walker_cache </text>
<text text-anchor="middle" x="1033" y="-100.8" font-family="Arial" font-size="14.00" fill="#000000">: WalkCache</text>
</a>
</g>
</g>
<g id="clust113" class="cluster">
<title>cluster_system_cpu_cluster_cpus_dtb_walker_cache</title>
<g id="a_clust113"><a xlink:title="addr_ranges=0:18446744073709551615&#10;assoc=8&#10;clk_domain=system.cpu_cluster.clk_domain&#10;clusivity=mostly_incl&#10;compressor=Null&#10;data_latency=4&#10;default_p_state=UNDEFINED&#10;demand_mshr_reserve=1&#10;eventq_index=0&#10;is_read_only=true&#10;max_miss_count=0&#10;mshrs=6&#10;p_state_clk_gate_bins=20&#10;p_state_clk_gate_max=1000000000000&#10;p_state_clk_gate_min=1000&#10;power_model=&#10;prefetch_on_access=false&#10;prefetcher=Null&#10;&#13;eplacement_policy=system.cpu_cluster.cpus.dtb_walker_cache.replacement_policy&#10;&#13;esponse_latency=4&#10;sequential_access=false&#10;size=1024&#10;system=system&#10;tag_latency=4&#10;tags=system.cpu_cluster.cpus.dtb_walker_cache.tags&#10;tgts_per_mshr=8&#10;warmup_percentage=0&#10;write_allocator=Null&#10;write_buffers=16&#10;writeback_clean=true">
<path fill="#bab6ae" stroke="#000000" d="M1150,-40C1150,-40 1320,-40 1320,-40 1326,-40 1332,-46 1332,-52 1332,-52 1332,-119 1332,-119 1332,-125 1326,-131 1320,-131 1320,-131 1150,-131 1150,-131 1144,-131 1138,-125 1138,-119 1138,-119 1138,-52 1138,-52 1138,-46 1144,-40 1150,-40"/>
<text text-anchor="middle" x="1235" y="-115.8" font-family="Arial" font-size="14.00" fill="#000000">dtb_walker_cache </text>
<text text-anchor="middle" x="1235" y="-100.8" font-family="Arial" font-size="14.00" fill="#000000">: WalkCache</text>
</a>
</g>
</g>
<g id="clust118" class="cluster">
<title>cluster_system_cpu_cluster_cpus_dcache</title>
<g id="a_clust118"><a xlink:title="addr_ranges=0:18446744073709551615&#10;assoc=2&#10;clk_domain=system.cpu_cluster.clk_domain&#10;clusivity=mostly_incl&#10;compressor=Null&#10;data_latency=2&#10;default_p_state=UNDEFINED&#10;demand_mshr_reserve=1&#10;eventq_index=0&#10;is_read_only=false&#10;max_miss_count=0&#10;mshrs=16&#10;p_state_clk_gate_bins=20&#10;p_state_clk_gate_max=1000000000000&#10;p_state_clk_gate_min=1000&#10;power_model=&#10;prefetch_on_access=false&#10;prefetcher=Null&#10;&#13;eplacement_policy=system.cpu_cluster.cpus.dcache.replacement_policy&#10;&#13;esponse_latency=1&#10;sequential_access=false&#10;size=32768&#10;system=system&#10;tag_latency=2&#10;tags=system.cpu_cluster.cpus.dcache.tags&#10;tgts_per_mshr=16&#10;warmup_percentage=0&#10;write_allocator=Null&#10;write_buffers=16&#10;writeback_clean=false">
<path fill="#bab6ae" stroke="#000000" d="M544,-40C544,-40 714,-40 714,-40 720,-40 726,-46 726,-52 726,-52 726,-119 726,-119 726,-125 720,-131 714,-131 714,-131 544,-131 544,-131 538,-131 532,-125 532,-119 532,-119 532,-52 532,-52 532,-46 538,-40 544,-40"/>
<text text-anchor="middle" x="629" y="-115.8" font-family="Arial" font-size="14.00" fill="#000000">dcache </text>
<text text-anchor="middle" x="629" y="-100.8" font-family="Arial" font-size="14.00" fill="#000000">: L1D</text>
</a>
</g>
</g>
<g id="clust126" class="cluster">
<title>cluster_system_cpu_cluster_cpus_itb</title>
<g id="a_clust126"><a xlink:title="eventq_index=0&#10;is_stage2=false&#10;size=64&#10;sys=system&#10;walker=system.cpu_cluster.cpus.itb.walker">
<path fill="#bab6ae" stroke="#000000" d="M1020,-163C1020,-163 1141,-163 1141,-163 1147,-163 1153,-169 1153,-175 1153,-175 1153,-296 1153,-296 1153,-302 1147,-308 1141,-308 1141,-308 1020,-308 1020,-308 1014,-308 1008,-302 1008,-296 1008,-296 1008,-175 1008,-175 1008,-169 1014,-163 1020,-163"/>
<text text-anchor="middle" x="1080.5" y="-292.8" font-family="Arial" font-size="14.00" fill="#000000">itb </text>
<text text-anchor="middle" x="1080.5" y="-277.8" font-family="Arial" font-size="14.00" fill="#000000">: ArmITB</text>
</a>
</g>
</g>
<g id="clust127" class="cluster">
<title>cluster_system_cpu_cluster_cpus_itb_walker</title>
<g id="a_clust127"><a xlink:title="clk_domain=system.cpu_cluster.clk_domain&#10;default_p_state=UNDEFINED&#10;eventq_index=0&#10;is_stage2=false&#10;&#10;um_squash_per_cycle=2&#10;p_state_clk_gate_bins=20&#10;p_state_clk_gate_max=1000000000000&#10;p_state_clk_gate_min=1000&#10;power_model=&#10;sys=system">
<path fill="#9f9c95" stroke="#000000" d="M1028,-171C1028,-171 1133,-171 1133,-171 1139,-171 1145,-177 1145,-183 1145,-183 1145,-250 1145,-250 1145,-256 1139,-262 1133,-262 1133,-262 1028,-262 1028,-262 1022,-262 1016,-256 1016,-250 1016,-250 1016,-183 1016,-183 1016,-177 1022,-171 1028,-171"/>
<text text-anchor="middle" x="1080.5" y="-246.8" font-family="Arial" font-size="14.00" fill="#000000">walker </text>
<text text-anchor="middle" x="1080.5" y="-231.8" font-family="Arial" font-size="14.00" fill="#000000">: ArmTableWalker</text>
</a>
</g>
</g>
<g id="clust131" class="cluster">
<title>cluster_system_mem_ctrls0</title>
<g id="a_clust131"><a xlink:title="IDD0=0.055&#10;IDD02=0.0&#10;IDD2N=0.032&#10;IDD2N2=0.0&#10;IDD2P0=0.0&#10;IDD2P02=0.0&#10;IDD2P1=0.032&#10;IDD2P12=0.0&#10;IDD3N=0.038&#10;IDD3N2=0.0&#10;IDD3P0=0.0&#10;IDD3P02=0.0&#10;IDD3P1=0.038&#10;IDD3P12=0.0&#10;IDD4R=0.157&#10;IDD4R2=0.0&#10;IDD4W=0.125&#10;IDD4W2=0.0&#10;IDD5=0.235&#10;IDD52=0.0&#10;IDD6=0.02&#10;IDD62=0.0&#10;VDD=1.5&#10;VDD2=0.0&#10;activation_limit=4&#10;addr_mapping=RoRaBaCoCh&#10;bank_groups_per_rank=0&#10;banks_per_rank=8&#10;burst_length=8&#10;clk_domain=system.clk_domain&#10;conf_table_reported=true&#10;default_p_state=UNDEFINED&#10;device_bus_width=8&#10;device_rowbuffer_size=1024&#10;device_size=536870912&#10;devices_per_rank=8&#10;dll=true&#10;enable_dram_powerdown=false&#10;eventq_index=0&#10;in_addr_map=true&#10;kvm_map=true&#10;max_accesses_per_row=16&#10;mem_sched_policy=frfcfs&#10;min_writes_per_switch=16&#10;&#10;ull=false&#10;p_state_clk_gate_bins=20&#10;p_state_clk_gate_max=1000000000000&#10;p_state_clk_gate_min=1000&#10;page_policy=open_adaptive&#10;power_model=&#10;qos_masters= &#160;&#160;&#160;&#160;&#160;&#160;&#160;&#160;&#160;&#160;&#160;&#160;&#160;&#160;&#10;qos_policy=Null&#10;qos_priorities=1&#10;qos_priority_escalation=false&#10;qos_q_policy=fifo&#10;qos_syncro_scheduler=false&#10;qos_turnaround_policy=Null&#10;&#13;ange=0:2147483647:0:1048704&#10;&#13;anks_per_channel=2&#10;&#13;ead_buffer_size=32&#10;static_backend_latency=10000&#10;static_frontend_latency=10000&#10;tBURST=5000&#10;tCCD_L=0&#10;tCCD_L_WR=0&#10;tCK=1250&#10;tCL=13750&#10;tCS=2500&#10;tRAS=35000&#10;tRCD=13750&#10;tREFI=7800000&#10;tRFC=260000&#10;tRP=13750&#10;tRRD=6000&#10;tRRD_L=0&#10;tRTP=7500&#10;tRTW=2500&#10;tWR=15000&#10;tWTR=7500&#10;tXAW=30000&#10;tXP=6000&#10;tXPDLL=0&#10;tXS=270000&#10;tXSDLL=0&#10;write_buffer_size=64&#10;write_high_thresh_perc=85&#10;write_low_thresh_perc=50">
<path fill="#5e5958" stroke="#000000" d="M36,-40C36,-40 149,-40 149,-40 155,-40 161,-46 161,-52 161,-52 161,-119 161,-119 161,-125 155,-131 149,-131 149,-131 36,-131 36,-131 30,-131 24,-125 24,-119 24,-119 24,-52 24,-52 24,-46 30,-40 36,-40"/>
<text text-anchor="middle" x="92.5" y="-115.8" font-family="Arial" font-size="14.00" fill="#000000">mem_ctrls0 </text>
<text text-anchor="middle" x="92.5" y="-100.8" font-family="Arial" font-size="14.00" fill="#000000">: DDR3_1600_8x8</text>
</a>
</g>
</g>
<g id="clust132" class="cluster">
<title>cluster_system_mem_ctrls1</title>
<g id="a_clust132"><a xlink:title="IDD0=0.055&#10;IDD02=0.0&#10;IDD2N=0.032&#10;IDD2N2=0.0&#10;IDD2P0=0.0&#10;IDD2P02=0.0&#10;IDD2P1=0.032&#10;IDD2P12=0.0&#10;IDD3N=0.038&#10;IDD3N2=0.0&#10;IDD3P0=0.0&#10;IDD3P02=0.0&#10;IDD3P1=0.038&#10;IDD3P12=0.0&#10;IDD4R=0.157&#10;IDD4R2=0.0&#10;IDD4W=0.125&#10;IDD4W2=0.0&#10;IDD5=0.235&#10;IDD52=0.0&#10;IDD6=0.02&#10;IDD62=0.0&#10;VDD=1.5&#10;VDD2=0.0&#10;activation_limit=4&#10;addr_mapping=RoRaBaCoCh&#10;bank_groups_per_rank=0&#10;banks_per_rank=8&#10;burst_length=8&#10;clk_domain=system.clk_domain&#10;conf_table_reported=true&#10;default_p_state=UNDEFINED&#10;device_bus_width=8&#10;device_rowbuffer_size=1024&#10;device_size=536870912&#10;devices_per_rank=8&#10;dll=true&#10;enable_dram_powerdown=false&#10;eventq_index=0&#10;in_addr_map=true&#10;kvm_map=true&#10;max_accesses_per_row=16&#10;mem_sched_policy=frfcfs&#10;min_writes_per_switch=16&#10;&#10;ull=false&#10;p_state_clk_gate_bins=20&#10;p_state_clk_gate_max=1000000000000&#10;p_state_clk_gate_min=1000&#10;page_policy=open_adaptive&#10;power_model=&#10;qos_masters= &#160;&#160;&#160;&#160;&#160;&#160;&#160;&#160;&#160;&#160;&#160;&#160;&#160;&#160;&#10;qos_policy=Null&#10;qos_priorities=1&#10;qos_priority_escalation=false&#10;qos_q_policy=fifo&#10;qos_syncro_scheduler=false&#10;qos_turnaround_policy=Null&#10;&#13;ange=0:2147483647:1:1048704&#10;&#13;anks_per_channel=2&#10;&#13;ead_buffer_size=32&#10;static_backend_latency=10000&#10;static_frontend_latency=10000&#10;tBURST=5000&#10;tCCD_L=0&#10;tCCD_L_WR=0&#10;tCK=1250&#10;tCL=13750&#10;tCS=2500&#10;tRAS=35000&#10;tRCD=13750&#10;tREFI=7800000&#10;tRFC=260000&#10;tRP=13750&#10;tRRD=6000&#10;tRRD_L=0&#10;tRTP=7500&#10;tRTW=2500&#10;tWR=15000&#10;tWTR=7500&#10;tXAW=30000&#10;tXP=6000&#10;tXPDLL=0&#10;tXS=270000&#10;tXSDLL=0&#10;write_buffer_size=64&#10;write_high_thresh_perc=85&#10;write_low_thresh_perc=50">
<path fill="#5e5958" stroke="#000000" d="M181,-40C181,-40 294,-40 294,-40 300,-40 306,-46 306,-52 306,-52 306,-119 306,-119 306,-125 300,-131 294,-131 294,-131 181,-131 181,-131 175,-131 169,-125 169,-119 169,-119 169,-52 169,-52 169,-46 175,-40 181,-40"/>
<text text-anchor="middle" x="237.5" y="-115.8" font-family="Arial" font-size="14.00" fill="#000000">mem_ctrls1 </text>
<text text-anchor="middle" x="237.5" y="-100.8" font-family="Arial" font-size="14.00" fill="#000000">: DDR3_1600_8x8</text>
</a>
</g>
</g>
<!-- system_system_port -->
<g id="node1" class="node">
<title>system_system_port</title>
<path fill="#b6b8bc" stroke="#000000" d="M235,-408.5C235,-408.5 307,-408.5 307,-408.5 313,-408.5 319,-414.5 319,-420.5 319,-420.5 319,-432.5 319,-432.5 319,-438.5 313,-444.5 307,-444.5 307,-444.5 235,-444.5 235,-444.5 229,-444.5 223,-438.5 223,-432.5 223,-432.5 223,-420.5 223,-420.5 223,-414.5 229,-408.5 235,-408.5"/>
<text text-anchor="middle" x="271" y="-422.8" font-family="Arial" font-size="14.00" fill="#000000">system_port</text>
</g>
<!-- system_membus_slave -->
<g id="node3" class="node">
<title>system_membus_slave</title>
<path fill="#586070" stroke="#000000" d="M256,-179.5C256,-179.5 286,-179.5 286,-179.5 292,-179.5 298,-185.5 298,-191.5 298,-191.5 298,-203.5 298,-203.5 298,-209.5 292,-215.5 286,-215.5 286,-215.5 256,-215.5 256,-215.5 250,-215.5 244,-209.5 244,-203.5 244,-203.5 244,-191.5 244,-191.5 244,-185.5 250,-179.5 256,-179.5"/>
<text text-anchor="middle" x="271" y="-193.8" font-family="Arial" font-size="14.00" fill="#000000">slave</text>
</g>
<!-- system_system_port&#45;&gt;system_membus_slave -->
<g id="edge1" class="edge">
<title>system_system_port&#45;&gt;system_membus_slave</title>
<path fill="none" stroke="#000000" d="M271,-408.1471C271,-368.2689 271,-273.4784 271,-225.8466"/>
<polygon fill="#000000" stroke="#000000" points="274.5001,-225.6224 271,-215.6225 267.5001,-225.6225 274.5001,-225.6224"/>
</g>
<!-- system_membus_master -->
<g id="node2" class="node">
<title>system_membus_master</title>
<path fill="#586070" stroke="#000000" d="M176.5,-179.5C176.5,-179.5 213.5,-179.5 213.5,-179.5 219.5,-179.5 225.5,-185.5 225.5,-191.5 225.5,-191.5 225.5,-203.5 225.5,-203.5 225.5,-209.5 219.5,-215.5 213.5,-215.5 213.5,-215.5 176.5,-215.5 176.5,-215.5 170.5,-215.5 164.5,-209.5 164.5,-203.5 164.5,-203.5 164.5,-191.5 164.5,-191.5 164.5,-185.5 170.5,-179.5 176.5,-179.5"/>
<text text-anchor="middle" x="195" y="-193.8" font-family="Arial" font-size="14.00" fill="#000000">master</text>
</g>
<!-- system_mem_ctrls0_port -->
<g id="node20" class="node">
<title>system_mem_ctrls0_port</title>
<path fill="#4b4746" stroke="#000000" d="M111,-48.5C111,-48.5 141,-48.5 141,-48.5 147,-48.5 153,-54.5 153,-60.5 153,-60.5 153,-72.5 153,-72.5 153,-78.5 147,-84.5 141,-84.5 141,-84.5 111,-84.5 111,-84.5 105,-84.5 99,-78.5 99,-72.5 99,-72.5 99,-60.5 99,-60.5 99,-54.5 105,-48.5 111,-48.5"/>
<text text-anchor="middle" x="126" y="-62.8" font-family="Arial" font-size="14.00" fill="#000000">port</text>
</g>
<!-- system_membus_master&#45;&gt;system_mem_ctrls0_port -->
<g id="edge2" class="edge">
<title>system_membus_master&#45;&gt;system_mem_ctrls0_port</title>
<path fill="none" stroke="#000000" d="M185.4058,-179.285C173.7165,-157.0923 153.8593,-119.3923 140.3494,-93.7431"/>
<polygon fill="#000000" stroke="#000000" points="143.2697,-91.7769 135.5127,-84.5603 137.0763,-95.0391 143.2697,-91.7769"/>
</g>
<!-- system_mem_ctrls1_port -->
<g id="node21" class="node">
<title>system_mem_ctrls1_port</title>
<path fill="#4b4746" stroke="#000000" d="M189,-48.5C189,-48.5 219,-48.5 219,-48.5 225,-48.5 231,-54.5 231,-60.5 231,-60.5 231,-72.5 231,-72.5 231,-78.5 225,-84.5 219,-84.5 219,-84.5 189,-84.5 189,-84.5 183,-84.5 177,-78.5 177,-72.5 177,-72.5 177,-60.5 177,-60.5 177,-54.5 183,-48.5 189,-48.5"/>
<text text-anchor="middle" x="204" y="-62.8" font-family="Arial" font-size="14.00" fill="#000000">port</text>
</g>
<!-- system_membus_master&#45;&gt;system_mem_ctrls1_port -->
<g id="edge3" class="edge">
<title>system_membus_master&#45;&gt;system_mem_ctrls1_port</title>
<path fill="none" stroke="#000000" d="M196.2514,-179.285C197.756,-157.3856 200.2979,-120.3861 202.058,-94.7663"/>
<polygon fill="#000000" stroke="#000000" points="205.5655,-94.7767 202.7592,-84.5603 198.5819,-94.2968 205.5655,-94.7767"/>
</g>
<!-- system_cpu_cluster_l2_mem_side -->
<g id="node6" class="node">
<title>system_cpu_cluster_l2_mem_side</title>
<path fill="#7f7c77" stroke="#000000" d="M342,-48.5C342,-48.5 402,-48.5 402,-48.5 408,-48.5 414,-54.5 414,-60.5 414,-60.5 414,-72.5 414,-72.5 414,-78.5 408,-84.5 402,-84.5 402,-84.5 342,-84.5 342,-84.5 336,-84.5 330,-78.5 330,-72.5 330,-72.5 330,-60.5 330,-60.5 330,-54.5 336,-48.5 342,-48.5"/>
<text text-anchor="middle" x="372" y="-62.8" font-family="Arial" font-size="14.00" fill="#000000">mem_side</text>
</g>
<!-- system_membus_slave&#45;&gt;system_cpu_cluster_l2_mem_side -->
<g id="edge4" class="edge">
<title>system_membus_slave&#45;&gt;system_cpu_cluster_l2_mem_side</title>
<path fill="none" stroke="#000000" d="M291.3616,-171.0904C311.1907,-145.3714 340.7956,-106.973 358.0757,-84.5603"/>
<polygon fill="#000000" stroke="#000000" points="288.3777,-169.2284 285.0436,-179.285 293.9214,-173.5026 288.3777,-169.2284"/>
</g>
<!-- system_cpu_cluster_toL2Bus_master -->
<g id="node4" class="node">
<title>system_cpu_cluster_toL2Bus_master</title>
<path fill="#586070" stroke="#000000" d="M386.5,-179.5C386.5,-179.5 423.5,-179.5 423.5,-179.5 429.5,-179.5 435.5,-185.5 435.5,-191.5 435.5,-191.5 435.5,-203.5 435.5,-203.5 435.5,-209.5 429.5,-215.5 423.5,-215.5 423.5,-215.5 386.5,-215.5 386.5,-215.5 380.5,-215.5 374.5,-209.5 374.5,-203.5 374.5,-203.5 374.5,-191.5 374.5,-191.5 374.5,-185.5 380.5,-179.5 386.5,-179.5"/>
<text text-anchor="middle" x="405" y="-193.8" font-family="Arial" font-size="14.00" fill="#000000">master</text>
</g>
<!-- system_cpu_cluster_l2_cpu_side -->
<g id="node7" class="node">
<title>system_cpu_cluster_l2_cpu_side</title>
<path fill="#7f7c77" stroke="#000000" d="M444,-48.5C444,-48.5 496,-48.5 496,-48.5 502,-48.5 508,-54.5 508,-60.5 508,-60.5 508,-72.5 508,-72.5 508,-78.5 502,-84.5 496,-84.5 496,-84.5 444,-84.5 444,-84.5 438,-84.5 432,-78.5 432,-72.5 432,-72.5 432,-60.5 432,-60.5 432,-54.5 438,-48.5 444,-48.5"/>
<text text-anchor="middle" x="470" y="-62.8" font-family="Arial" font-size="14.00" fill="#000000">cpu_side</text>
</g>
<!-- system_cpu_cluster_toL2Bus_master&#45;&gt;system_cpu_cluster_l2_cpu_side -->
<g id="edge5" class="edge">
<title>system_cpu_cluster_toL2Bus_master&#45;&gt;system_cpu_cluster_l2_cpu_side</title>
<path fill="none" stroke="#000000" d="M414.038,-179.285C425.0496,-157.0923 443.7557,-119.3923 456.4824,-93.7431"/>
<polygon fill="#000000" stroke="#000000" points="459.7292,-95.0739 461.0388,-84.5603 453.4587,-91.9625 459.7292,-95.0739"/>
</g>
<!-- system_cpu_cluster_toL2Bus_slave -->
<g id="node5" class="node">
<title>system_cpu_cluster_toL2Bus_slave</title>
<path fill="#586070" stroke="#000000" d="M466,-179.5C466,-179.5 496,-179.5 496,-179.5 502,-179.5 508,-185.5 508,-191.5 508,-191.5 508,-203.5 508,-203.5 508,-209.5 502,-215.5 496,-215.5 496,-215.5 466,-215.5 466,-215.5 460,-215.5 454,-209.5 454,-203.5 454,-203.5 454,-191.5 454,-191.5 454,-185.5 460,-179.5 466,-179.5"/>
<text text-anchor="middle" x="481" y="-193.8" font-family="Arial" font-size="14.00" fill="#000000">slave</text>
</g>
<!-- system_cpu_cluster_cpus_icache_mem_side -->
<g id="node10" class="node">
<title>system_cpu_cluster_cpus_icache_mem_side</title>
<path fill="#94918b" stroke="#000000" d="M754,-48.5C754,-48.5 814,-48.5 814,-48.5 820,-48.5 826,-54.5 826,-60.5 826,-60.5 826,-72.5 826,-72.5 826,-78.5 820,-84.5 814,-84.5 814,-84.5 754,-84.5 754,-84.5 748,-84.5 742,-78.5 742,-72.5 742,-72.5 742,-60.5 742,-60.5 742,-54.5 748,-48.5 754,-48.5"/>
<text text-anchor="middle" x="784" y="-62.8" font-family="Arial" font-size="14.00" fill="#000000">mem_side</text>
</g>
<!-- system_cpu_cluster_toL2Bus_slave&#45;&gt;system_cpu_cluster_cpus_icache_mem_side -->
<g id="edge6" class="edge">
<title>system_cpu_cluster_toL2Bus_slave&#45;&gt;system_cpu_cluster_cpus_icache_mem_side</title>
<path fill="none" stroke="#000000" d="M505.1181,-172.4858C509.742,-168.8085 514.7804,-165.4428 520,-163 605.5092,-122.9804 647.7189,-177.2947 730,-131 749.2192,-120.1865 764.5532,-99.689 773.8986,-84.6938"/>
<polygon fill="#000000" stroke="#000000" points="502.5295,-170.0992 497.2933,-179.3097 507.1304,-175.3749 502.5295,-170.0992"/>
</g>
<!-- system_cpu_cluster_cpus_itb_walker_cache_mem_side -->
<g id="node13" class="node">
<title>system_cpu_cluster_cpus_itb_walker_cache_mem_side</title>
<path fill="#94918b" stroke="#000000" d="M956,-48.5C956,-48.5 1016,-48.5 1016,-48.5 1022,-48.5 1028,-54.5 1028,-60.5 1028,-60.5 1028,-72.5 1028,-72.5 1028,-78.5 1022,-84.5 1016,-84.5 1016,-84.5 956,-84.5 956,-84.5 950,-84.5 944,-78.5 944,-72.5 944,-72.5 944,-60.5 944,-60.5 944,-54.5 950,-48.5 956,-48.5"/>
<text text-anchor="middle" x="986" y="-62.8" font-family="Arial" font-size="14.00" fill="#000000">mem_side</text>
</g>
<!-- system_cpu_cluster_toL2Bus_slave&#45;&gt;system_cpu_cluster_cpus_itb_walker_cache_mem_side -->
<g id="edge8" class="edge">
<title>system_cpu_cluster_toL2Bus_slave&#45;&gt;system_cpu_cluster_cpus_itb_walker_cache_mem_side</title>
<path fill="none" stroke="#000000" d="M504.3467,-172.6524C509.1542,-168.814 514.4547,-165.3503 520,-163 689.1013,-91.3292 768.7244,-215.1012 932,-131 951.7344,-120.8351 967.0713,-100.0022 976.2756,-84.7531"/>
<polygon fill="#000000" stroke="#000000" points="501.9524,-170.0972 496.7653,-179.3354 506.5813,-175.3483 501.9524,-170.0972"/>
</g>
<!-- system_cpu_cluster_cpus_dtb_walker_cache_mem_side -->
<g id="node15" class="node">
<title>system_cpu_cluster_cpus_dtb_walker_cache_mem_side</title>
<path fill="#94918b" stroke="#000000" d="M1158,-48.5C1158,-48.5 1218,-48.5 1218,-48.5 1224,-48.5 1230,-54.5 1230,-60.5 1230,-60.5 1230,-72.5 1230,-72.5 1230,-78.5 1224,-84.5 1218,-84.5 1218,-84.5 1158,-84.5 1158,-84.5 1152,-84.5 1146,-78.5 1146,-72.5 1146,-72.5 1146,-60.5 1146,-60.5 1146,-54.5 1152,-48.5 1158,-48.5"/>
<text text-anchor="middle" x="1188" y="-62.8" font-family="Arial" font-size="14.00" fill="#000000">mem_side</text>
</g>
<!-- system_cpu_cluster_toL2Bus_slave&#45;&gt;system_cpu_cluster_cpus_dtb_walker_cache_mem_side -->
<g id="edge9" class="edge">
<title>system_cpu_cluster_toL2Bus_slave&#45;&gt;system_cpu_cluster_cpus_dtb_walker_cache_mem_side</title>
<path fill="none" stroke="#000000" d="M504.2984,-172.5362C509.1106,-168.7093 514.4252,-165.2796 520,-163 646.4653,-111.2876 1011.7505,-192.014 1134,-131 1153.9928,-121.0217 1169.3763,-99.9317 1178.5189,-84.576"/>
<polygon fill="#000000" stroke="#000000" points="501.9044,-169.9808 496.7167,-179.2186 506.5329,-175.2322 501.9044,-169.9808"/>
</g>
<!-- system_cpu_cluster_cpus_dcache_mem_side -->
<g id="node17" class="node">
<title>system_cpu_cluster_cpus_dcache_mem_side</title>
<path fill="#94918b" stroke="#000000" d="M552,-48.5C552,-48.5 612,-48.5 612,-48.5 618,-48.5 624,-54.5 624,-60.5 624,-60.5 624,-72.5 624,-72.5 624,-78.5 618,-84.5 612,-84.5 612,-84.5 552,-84.5 552,-84.5 546,-84.5 540,-78.5 540,-72.5 540,-72.5 540,-60.5 540,-60.5 540,-54.5 546,-48.5 552,-48.5"/>
<text text-anchor="middle" x="582" y="-62.8" font-family="Arial" font-size="14.00" fill="#000000">mem_side</text>
</g>
<!-- system_cpu_cluster_toL2Bus_slave&#45;&gt;system_cpu_cluster_cpus_dcache_mem_side -->
<g id="edge7" class="edge">
<title>system_cpu_cluster_toL2Bus_slave&#45;&gt;system_cpu_cluster_cpus_dcache_mem_side</title>
<path fill="none" stroke="#000000" d="M501.3616,-171.0904C521.1907,-145.3714 550.7956,-106.973 568.0757,-84.5603"/>
<polygon fill="#000000" stroke="#000000" points="498.3777,-169.2284 495.0436,-179.285 503.9214,-173.5026 498.3777,-169.2284"/>
</g>
<!-- system_cpu_cluster_cpus_icache_port -->
<g id="node8" class="node">
<title>system_cpu_cluster_cpus_icache_port</title>
<path fill="#959ead" stroke="#000000" d="M848,-179.5C848,-179.5 916,-179.5 916,-179.5 922,-179.5 928,-185.5 928,-191.5 928,-191.5 928,-203.5 928,-203.5 928,-209.5 922,-215.5 916,-215.5 916,-215.5 848,-215.5 848,-215.5 842,-215.5 836,-209.5 836,-203.5 836,-203.5 836,-191.5 836,-191.5 836,-185.5 842,-179.5 848,-179.5"/>
<text text-anchor="middle" x="882" y="-193.8" font-family="Arial" font-size="14.00" fill="#000000">icache_port</text>
</g>
<!-- system_cpu_cluster_cpus_icache_cpu_side -->
<g id="node11" class="node">
<title>system_cpu_cluster_cpus_icache_cpu_side</title>
<path fill="#94918b" stroke="#000000" d="M856,-48.5C856,-48.5 908,-48.5 908,-48.5 914,-48.5 920,-54.5 920,-60.5 920,-60.5 920,-72.5 920,-72.5 920,-78.5 914,-84.5 908,-84.5 908,-84.5 856,-84.5 856,-84.5 850,-84.5 844,-78.5 844,-72.5 844,-72.5 844,-60.5 844,-60.5 844,-54.5 850,-48.5 856,-48.5"/>
<text text-anchor="middle" x="882" y="-62.8" font-family="Arial" font-size="14.00" fill="#000000">cpu_side</text>
</g>
<!-- system_cpu_cluster_cpus_icache_port&#45;&gt;system_cpu_cluster_cpus_icache_cpu_side -->
<g id="edge10" class="edge">
<title>system_cpu_cluster_cpus_icache_port&#45;&gt;system_cpu_cluster_cpus_icache_cpu_side</title>
<path fill="none" stroke="#000000" d="M882,-179.285C882,-157.3856 882,-120.3861 882,-94.7663"/>
<polygon fill="#000000" stroke="#000000" points="885.5001,-94.5603 882,-84.5603 878.5001,-94.5603 885.5001,-94.5603"/>
</g>
<!-- system_cpu_cluster_cpus_dcache_port -->
<g id="node9" class="node">
<title>system_cpu_cluster_cpus_dcache_port</title>
<path fill="#959ead" stroke="#000000" d="M643,-179.5C643,-179.5 717,-179.5 717,-179.5 723,-179.5 729,-185.5 729,-191.5 729,-191.5 729,-203.5 729,-203.5 729,-209.5 723,-215.5 717,-215.5 717,-215.5 643,-215.5 643,-215.5 637,-215.5 631,-209.5 631,-203.5 631,-203.5 631,-191.5 631,-191.5 631,-185.5 637,-179.5 643,-179.5"/>
<text text-anchor="middle" x="680" y="-193.8" font-family="Arial" font-size="14.00" fill="#000000">dcache_port</text>
</g>
<!-- system_cpu_cluster_cpus_dcache_cpu_side -->
<g id="node18" class="node">
<title>system_cpu_cluster_cpus_dcache_cpu_side</title>
<path fill="#94918b" stroke="#000000" d="M654,-48.5C654,-48.5 706,-48.5 706,-48.5 712,-48.5 718,-54.5 718,-60.5 718,-60.5 718,-72.5 718,-72.5 718,-78.5 712,-84.5 706,-84.5 706,-84.5 654,-84.5 654,-84.5 648,-84.5 642,-78.5 642,-72.5 642,-72.5 642,-60.5 642,-60.5 642,-54.5 648,-48.5 654,-48.5"/>
<text text-anchor="middle" x="680" y="-62.8" font-family="Arial" font-size="14.00" fill="#000000">cpu_side</text>
</g>
<!-- system_cpu_cluster_cpus_dcache_port&#45;&gt;system_cpu_cluster_cpus_dcache_cpu_side -->
<g id="edge11" class="edge">
<title>system_cpu_cluster_cpus_dcache_port&#45;&gt;system_cpu_cluster_cpus_dcache_cpu_side</title>
<path fill="none" stroke="#000000" d="M680,-179.285C680,-157.3856 680,-120.3861 680,-94.7663"/>
<polygon fill="#000000" stroke="#000000" points="683.5001,-94.5603 680,-84.5603 676.5001,-94.5603 683.5001,-94.5603"/>
</g>
<!-- system_cpu_cluster_cpus_dtb_walker_port -->
<g id="node12" class="node">
<title>system_cpu_cluster_cpus_dtb_walker_port</title>
<path fill="#7f7c77" stroke="#000000" d="M1271,-179.5C1271,-179.5 1301,-179.5 1301,-179.5 1307,-179.5 1313,-185.5 1313,-191.5 1313,-191.5 1313,-203.5 1313,-203.5 1313,-209.5 1307,-215.5 1301,-215.5 1301,-215.5 1271,-215.5 1271,-215.5 1265,-215.5 1259,-209.5 1259,-203.5 1259,-203.5 1259,-191.5 1259,-191.5 1259,-185.5 1265,-179.5 1271,-179.5"/>
<text text-anchor="middle" x="1286" y="-193.8" font-family="Arial" font-size="14.00" fill="#000000">port</text>
</g>
<!-- system_cpu_cluster_cpus_dtb_walker_cache_cpu_side -->
<g id="node16" class="node">
<title>system_cpu_cluster_cpus_dtb_walker_cache_cpu_side</title>
<path fill="#94918b" stroke="#000000" d="M1260,-48.5C1260,-48.5 1312,-48.5 1312,-48.5 1318,-48.5 1324,-54.5 1324,-60.5 1324,-60.5 1324,-72.5 1324,-72.5 1324,-78.5 1318,-84.5 1312,-84.5 1312,-84.5 1260,-84.5 1260,-84.5 1254,-84.5 1248,-78.5 1248,-72.5 1248,-72.5 1248,-60.5 1248,-60.5 1248,-54.5 1254,-48.5 1260,-48.5"/>
<text text-anchor="middle" x="1286" y="-62.8" font-family="Arial" font-size="14.00" fill="#000000">cpu_side</text>
</g>
<!-- system_cpu_cluster_cpus_dtb_walker_port&#45;&gt;system_cpu_cluster_cpus_dtb_walker_cache_cpu_side -->
<g id="edge12" class="edge">
<title>system_cpu_cluster_cpus_dtb_walker_port&#45;&gt;system_cpu_cluster_cpus_dtb_walker_cache_cpu_side</title>
<path fill="none" stroke="#000000" d="M1286,-179.285C1286,-157.3856 1286,-120.3861 1286,-94.7663"/>
<polygon fill="#000000" stroke="#000000" points="1289.5001,-94.5603 1286,-84.5603 1282.5001,-94.5603 1289.5001,-94.5603"/>
</g>
<!-- system_cpu_cluster_cpus_itb_walker_cache_cpu_side -->
<g id="node14" class="node">
<title>system_cpu_cluster_cpus_itb_walker_cache_cpu_side</title>
<path fill="#94918b" stroke="#000000" d="M1058,-48.5C1058,-48.5 1110,-48.5 1110,-48.5 1116,-48.5 1122,-54.5 1122,-60.5 1122,-60.5 1122,-72.5 1122,-72.5 1122,-78.5 1116,-84.5 1110,-84.5 1110,-84.5 1058,-84.5 1058,-84.5 1052,-84.5 1046,-78.5 1046,-72.5 1046,-72.5 1046,-60.5 1046,-60.5 1046,-54.5 1052,-48.5 1058,-48.5"/>
<text text-anchor="middle" x="1084" y="-62.8" font-family="Arial" font-size="14.00" fill="#000000">cpu_side</text>
</g>
<!-- system_cpu_cluster_cpus_itb_walker_port -->
<g id="node19" class="node">
<title>system_cpu_cluster_cpus_itb_walker_port</title>
<path fill="#7f7c77" stroke="#000000" d="M1069,-179.5C1069,-179.5 1099,-179.5 1099,-179.5 1105,-179.5 1111,-185.5 1111,-191.5 1111,-191.5 1111,-203.5 1111,-203.5 1111,-209.5 1105,-215.5 1099,-215.5 1099,-215.5 1069,-215.5 1069,-215.5 1063,-215.5 1057,-209.5 1057,-203.5 1057,-203.5 1057,-191.5 1057,-191.5 1057,-185.5 1063,-179.5 1069,-179.5"/>
<text text-anchor="middle" x="1084" y="-193.8" font-family="Arial" font-size="14.00" fill="#000000">port</text>
</g>
<!-- system_cpu_cluster_cpus_itb_walker_port&#45;&gt;system_cpu_cluster_cpus_itb_walker_cache_cpu_side -->
<g id="edge13" class="edge">
<title>system_cpu_cluster_cpus_itb_walker_port&#45;&gt;system_cpu_cluster_cpus_itb_walker_cache_cpu_side</title>
<path fill="none" stroke="#000000" d="M1084,-179.285C1084,-157.3856 1084,-120.3861 1084,-94.7663"/>
<polygon fill="#000000" stroke="#000000" points="1087.5001,-94.5603 1084,-84.5603 1080.5001,-94.5603 1087.5001,-94.5603"/>
</g>
</g>
</svg>
