<?xml version="1.0" encoding="UTF-8" standalone="no"?>
<!DOCTYPE svg PUBLIC "-//W3C//DTD SVG 1.1//EN"
 "http://www.w3.org/Graphics/SVG/1.1/DTD/svg11.dtd">
<!-- Generated by graphviz version 2.40.1 (20161225.0304)
 -->
<!-- Title: G Pages: 1 -->
<svg width="745pt" height="638pt"
 viewBox="0.00 0.00 745.00 638.00" xmlns="http://www.w3.org/2000/svg" xmlns:xlink="http://www.w3.org/1999/xlink">
<g id="graph0" class="graph" transform="scale(1 1) rotate(0) translate(4 634)">
<title>G</title>
<polygon fill="#ffffff" stroke="transparent" points="-4,4 -4,-634 741,-634 741,4 -4,4"/>
<g id="clust1" class="cluster">
<title>cluster_root</title>
<g id="a_clust1"><a xlink:title="eventq_index=0&#10;full_system=false&#10;sim_quantum=0&#10;time_sync_enable=false&#10;time_sync_period=100000000000&#10;time_sync_spin_threshold=100000000">
<path fill="#bab6ae" stroke="#000000" d="M20,-8C20,-8 717,-8 717,-8 723,-8 729,-14 729,-20 729,-20 729,-610 729,-610 729,-616 723,-622 717,-622 717,-622 20,-622 20,-622 14,-622 8,-616 8,-610 8,-610 8,-20 8,-20 8,-14 14,-8 20,-8"/>
<text text-anchor="middle" x="368.5" y="-606.8" font-family="Arial" font-size="14.00" fill="#000000">root </text>
<text text-anchor="middle" x="368.5" y="-591.8" font-family="Arial" font-size="14.00" fill="#000000">: Root</text>
</a>
</g>
</g>
<g id="clust2" class="cluster">
<title>cluster_system</title>
<g id="a_clust2"><a xlink:title="boot_osflags=a&#10;cache_line_size=64&#10;eventq_index=0&#10;exit_on_work_items=false&#10;init_param=0&#10;kernel=&#10;kernel_addr_check=true&#10;kernel_extras=&#10;&#10;oad_addr_mask=18446744073709551615&#10;&#10;oad_offset=0&#10;mem_mode=timing&#10;mem_ranges=0:536870911&#10;memories=system.mem_ctrls&#10;mmap_using_noreserve=false&#10;multi_thread=false&#10;&#10;um_work_ids=16&#10;&#13;eadfile=&#10;&#13;edirect_paths=system.redirect_paths0 system.redirect_paths1 system.redirect_paths2 system.redirect_paths3&#10;symbolfile=&#10;thermal_components=&#10;thermal_model=Null&#10;work_begin_ckpt_count=0&#10;work_begin_cpu_id_exit=&#45;1&#10;work_begin_exit_count=0&#10;work_cpus_ckpt_count=0&#10;work_end_ckpt_count=0&#10;work_end_exit_count=0&#10;work_item_id=&#45;1">
<path fill="#e4e7eb" stroke="#000000" d="M28,-16C28,-16 709,-16 709,-16 715,-16 721,-22 721,-28 721,-28 721,-564 721,-564 721,-570 715,-576 709,-576 709,-576 28,-576 28,-576 22,-576 16,-570 16,-564 16,-564 16,-28 16,-28 16,-22 22,-16 28,-16"/>
<text text-anchor="middle" x="368.5" y="-560.8" font-family="Arial" font-size="14.00" fill="#000000">system </text>
<text text-anchor="middle" x="368.5" y="-545.8" font-family="Arial" font-size="14.00" fill="#000000">: System</text>
</a>
</g>
</g>
<g id="clust3" class="cluster">
<title>cluster_system_membus</title>
<g id="a_clust3"><a xlink:title="clk_domain=system.clk_domain&#10;default_p_state=UNDEFINED&#10;eventq_index=0&#10;forward_latency=4&#10;frontend_latency=3&#10;max_outstanding_snoops=512&#10;max_routing_table_size=512&#10;p_state_clk_gate_bins=20&#10;p_state_clk_gate_max=1000000000000&#10;p_state_clk_gate_min=1000&#10;point_of_coherency=true&#10;point_of_unification=true&#10;power_model=&#10;&#13;esponse_latency=2&#10;snoop_filter=system.membus.snoop_filter&#10;snoop_response_latency=4&#10;system=system&#10;use_default_range=false&#10;width=16">
<path fill="#6f798c" stroke="#000000" d="M374,-354C374,-354 500,-354 500,-354 506,-354 512,-360 512,-366 512,-366 512,-433 512,-433 512,-439 506,-445 500,-445 500,-445 374,-445 374,-445 368,-445 362,-439 362,-433 362,-433 362,-366 362,-366 362,-360 368,-354 374,-354"/>
<text text-anchor="middle" x="437" y="-429.8" font-family="Arial" font-size="14.00" fill="#000000">membus </text>
<text text-anchor="middle" x="437" y="-414.8" font-family="Arial" font-size="14.00" fill="#000000">: SystemXBar</text>
</a>
</g>
</g>
<g id="clust12" class="cluster">
<title>cluster_system_mem_ctrls</title>
<g id="a_clust12"><a xlink:title="IDD0=0.055&#10;IDD02=0.0&#10;IDD2N=0.032&#10;IDD2N2=0.0&#10;IDD2P0=0.0&#10;IDD2P02=0.0&#10;IDD2P1=0.032&#10;IDD2P12=0.0&#10;IDD3N=0.038&#10;IDD3N2=0.0&#10;IDD3P0=0.0&#10;IDD3P02=0.0&#10;IDD3P1=0.038&#10;IDD3P12=0.0&#10;IDD4R=0.157&#10;IDD4R2=0.0&#10;IDD4W=0.125&#10;IDD4W2=0.0&#10;IDD5=0.235&#10;IDD52=0.0&#10;IDD6=0.02&#10;IDD62=0.0&#10;VDD=1.5&#10;VDD2=0.0&#10;activation_limit=4&#10;addr_mapping=RoRaBaCoCh&#10;bank_groups_per_rank=0&#10;banks_per_rank=8&#10;burst_length=8&#10;clk_domain=system.clk_domain&#10;conf_table_reported=true&#10;default_p_state=UNDEFINED&#10;device_bus_width=8&#10;device_rowbuffer_size=1024&#10;device_size=536870912&#10;devices_per_rank=8&#10;dll=true&#10;enable_dram_powerdown=false&#10;eventq_index=0&#10;in_addr_map=true&#10;kvm_map=true&#10;max_accesses_per_row=16&#10;mem_sched_policy=frfcfs&#10;min_writes_per_switch=16&#10;&#10;ull=false&#10;p_state_clk_gate_bins=20&#10;p_state_clk_gate_max=1000000000000&#10;p_state_clk_gate_min=1000&#10;page_policy=open_adaptive&#10;power_model=&#10;qos_masters= &#160;&#160;&#160;&#160;&#160;&#160;&#160;&#160;&#160;&#160;&#160;&#160;&#160;&#160;&#10;qos_policy=Null&#10;qos_priorities=1&#10;qos_priority_escalation=false&#10;qos_q_policy=fifo&#10;qos_syncro_scheduler=false&#10;qos_turnaround_policy=Null&#10;&#13;ange=0:536870911&#10;&#13;anks_per_channel=2&#10;&#13;ead_buffer_size=32&#10;static_backend_latency=10000&#10;static_frontend_latency=10000&#10;tBURST=5000&#10;tCCD_L=0&#10;tCCD_L_WR=0&#10;tCK=1250&#10;tCL=13750&#10;tCS=2500&#10;tRAS=35000&#10;tRCD=13750&#10;tREFI=7800000&#10;tRFC=260000&#10;tRP=13750&#10;tRRD=6000&#10;tRRD_L=0&#10;tRTP=7500&#10;tRTW=2500&#10;tWR=15000&#10;tWTR=7500&#10;tXAW=30000&#10;tXP=6000&#10;tXPDLL=0&#10;tXS=270000&#10;tXSDLL=0&#10;write_buffer_size=64&#10;write_high_thresh_perc=85&#10;write_low_thresh_perc=50">
<path fill="#5e5958" stroke="#000000" d="M36,-163C36,-163 149,-163 149,-163 155,-163 161,-169 161,-175 161,-175 161,-242 161,-242 161,-248 155,-254 149,-254 149,-254 36,-254 36,-254 30,-254 24,-248 24,-242 24,-242 24,-175 24,-175 24,-169 30,-163 36,-163"/>
<text text-anchor="middle" x="92.5" y="-238.8" font-family="Arial" font-size="14.00" fill="#000000">mem_ctrls </text>
<text text-anchor="middle" x="92.5" y="-223.8" font-family="Arial" font-size="14.00" fill="#000000">: DDR3_1600_8x8</text>
</a>
</g>
</g>
<g id="clust15" class="cluster">
<title>cluster_system_cpu</title>
<g id="a_clust15"><a xlink:title="branchPred=Null&#10;checker=Null&#10;clk_domain=system.cpu_clk_domain&#10;cpu_id=0&#10;default_p_state=UNDEFINED&#10;do_checkpoint_insts=true&#10;do_quiesce=true&#10;do_statistics_insts=true&#10;dtb=system.cpu.dtb&#10;eventq_index=0&#10;function_trace=false&#10;function_trace_start=0&#10;interrupts=system.cpu.interrupts&#10;isa=system.cpu.isa&#10;itb=system.cpu.itb&#10;max_insts_all_threads=0&#10;max_insts_any_thread=0&#10;&#10;umThreads=1&#10;p_state_clk_gate_bins=20&#10;p_state_clk_gate_max=1000000000000&#10;p_state_clk_gate_min=1000&#10;power_gating_on_idle=false&#10;power_model=&#10;profile=0&#10;progress_interval=0&#10;pwr_gating_latency=300&#10;simpoint_start_insts=&#10;socket_id=0&#10;switched_out=false&#10;syscallRetryLatency=10000&#10;system=system&#10;tracer=system.cpu.tracer&#10;wait_for_remote_gdb=false&#10;workload=system.cpu.workload">
<path fill="#bbc6d9" stroke="#000000" d="M193,-24C193,-24 699,-24 699,-24 705,-24 711,-30 711,-36 711,-36 711,-334 711,-334 711,-340 705,-346 699,-346 699,-346 193,-346 193,-346 187,-346 181,-340 181,-334 181,-334 181,-36 181,-36 181,-30 187,-24 193,-24"/>
<text text-anchor="middle" x="446" y="-330.8" font-family="Arial" font-size="14.00" fill="#000000">cpu </text>
<text text-anchor="middle" x="446" y="-315.8" font-family="Arial" font-size="14.00" fill="#000000">: TimingSimpleCPU</text>
</a>
</g>
</g>
<g id="clust16" class="cluster">
<title>cluster_system_cpu_icache</title>
<g id="a_clust16"><a xlink:title="addr_ranges=0:18446744073709551615&#10;assoc=2&#10;clk_domain=system.cpu_clk_domain&#10;clusivity=mostly_incl&#10;compressor=Null&#10;data_latency=2&#10;default_p_state=UNDEFINED&#10;demand_mshr_reserve=1&#10;eventq_index=0&#10;is_read_only=true&#10;max_miss_count=0&#10;mshrs=4&#10;p_state_clk_gate_bins=20&#10;p_state_clk_gate_max=1000000000000&#10;p_state_clk_gate_min=1000&#10;power_model=&#10;prefetch_on_access=false&#10;prefetcher=Null&#10;&#13;eplacement_policy=system.cpu.icache.replacement_policy&#10;&#13;esponse_latency=2&#10;sequential_access=false&#10;size=32768&#10;system=system&#10;tag_latency=2&#10;tags=system.cpu.icache.tags&#10;tgts_per_mshr=20&#10;warmup_percentage=0&#10;write_allocator=Null&#10;write_buffers=8&#10;writeback_clean=true">
<path fill="#bab6ae" stroke="#000000" d="M201,-32C201,-32 371,-32 371,-32 377,-32 383,-38 383,-44 383,-44 383,-111 383,-111 383,-117 377,-123 371,-123 371,-123 201,-123 201,-123 195,-123 189,-117 189,-111 189,-111 189,-44 189,-44 189,-38 195,-32 201,-32"/>
<text text-anchor="middle" x="286" y="-107.8" font-family="Arial" font-size="14.00" fill="#000000">icache </text>
<text text-anchor="middle" x="286" y="-92.8" font-family="Arial" font-size="14.00" fill="#000000">: L1_ICache</text>
</a>
</g>
</g>
<g id="clust20" class="cluster">
<title>cluster_system_cpu_dtb</title>
<g id="a_clust20"><a xlink:title="eventq_index=0&#10;is_stage2=false&#10;size=64&#10;sys=system&#10;walker=system.cpu.dtb.walker">
<path fill="#bab6ae" stroke="#000000" d="M570,-155C570,-155 691,-155 691,-155 697,-155 703,-161 703,-167 703,-167 703,-288 703,-288 703,-294 697,-300 691,-300 691,-300 570,-300 570,-300 564,-300 558,-294 558,-288 558,-288 558,-167 558,-167 558,-161 564,-155 570,-155"/>
<text text-anchor="middle" x="630.5" y="-284.8" font-family="Arial" font-size="14.00" fill="#000000">dtb </text>
<text text-anchor="middle" x="630.5" y="-269.8" font-family="Arial" font-size="14.00" fill="#000000">: ArmDTB</text>
</a>
</g>
</g>
<g id="clust21" class="cluster">
<title>cluster_system_cpu_dtb_walker</title>
<g id="a_clust21"><a xlink:title="clk_domain=system.cpu_clk_domain&#10;default_p_state=UNDEFINED&#10;eventq_index=0&#10;is_stage2=false&#10;&#10;um_squash_per_cycle=2&#10;p_state_clk_gate_bins=20&#10;p_state_clk_gate_max=1000000000000&#10;p_state_clk_gate_min=1000&#10;power_model=&#10;sys=system">
<path fill="#9f9c95" stroke="#000000" d="M578,-163C578,-163 683,-163 683,-163 689,-163 695,-169 695,-175 695,-175 695,-242 695,-242 695,-248 689,-254 683,-254 683,-254 578,-254 578,-254 572,-254 566,-248 566,-242 566,-242 566,-175 566,-175 566,-169 572,-163 578,-163"/>
<text text-anchor="middle" x="630.5" y="-238.8" font-family="Arial" font-size="14.00" fill="#000000">walker </text>
<text text-anchor="middle" x="630.5" y="-223.8" font-family="Arial" font-size="14.00" fill="#000000">: ArmTableWalker</text>
</a>
</g>
</g>
<g id="clust26" class="cluster">
<title>cluster_system_cpu_itb</title>
<g id="a_clust26"><a xlink:title="eventq_index=0&#10;is_stage2=false&#10;size=64&#10;sys=system&#10;walker=system.cpu.itb.walker">
<path fill="#bab6ae" stroke="#000000" d="M417,-155C417,-155 538,-155 538,-155 544,-155 550,-161 550,-167 550,-167 550,-288 550,-288 550,-294 544,-300 538,-300 538,-300 417,-300 417,-300 411,-300 405,-294 405,-288 405,-288 405,-167 405,-167 405,-161 411,-155 417,-155"/>
<text text-anchor="middle" x="477.5" y="-284.8" font-family="Arial" font-size="14.00" fill="#000000">itb </text>
<text text-anchor="middle" x="477.5" y="-269.8" font-family="Arial" font-size="14.00" fill="#000000">: ArmITB</text>
</a>
</g>
</g>
<g id="clust27" class="cluster">
<title>cluster_system_cpu_itb_walker</title>
<g id="a_clust27"><a xlink:title="clk_domain=system.cpu_clk_domain&#10;default_p_state=UNDEFINED&#10;eventq_index=0&#10;is_stage2=false&#10;&#10;um_squash_per_cycle=2&#10;p_state_clk_gate_bins=20&#10;p_state_clk_gate_max=1000000000000&#10;p_state_clk_gate_min=1000&#10;power_model=&#10;sys=system">
<path fill="#9f9c95" stroke="#000000" d="M425,-163C425,-163 530,-163 530,-163 536,-163 542,-169 542,-175 542,-175 542,-242 542,-242 542,-248 536,-254 530,-254 530,-254 425,-254 425,-254 419,-254 413,-248 413,-242 413,-242 413,-175 413,-175 413,-169 419,-163 425,-163"/>
<text text-anchor="middle" x="477.5" y="-238.8" font-family="Arial" font-size="14.00" fill="#000000">walker </text>
<text text-anchor="middle" x="477.5" y="-223.8" font-family="Arial" font-size="14.00" fill="#000000">: ArmTableWalker</text>
</a>
</g>
</g>
<g id="clust32" class="cluster">
<title>cluster_system_cpu_dcache</title>
<g id="a_clust32"><a xlink:title="addr_ranges=0:18446744073709551615&#10;assoc=2&#10;clk_domain=system.cpu_clk_domain&#10;clusivity=mostly_incl&#10;compressor=Null&#10;data_latency=2&#10;default_p_state=UNDEFINED&#10;demand_mshr_reserve=1&#10;eventq_index=0&#10;is_read_only=false&#10;max_miss_count=0&#10;mshrs=4&#10;p_state_clk_gate_bins=20&#10;p_state_clk_gate_max=1000000000000&#10;p_state_clk_gate_min=1000&#10;power_model=&#10;prefetch_on_access=false&#10;prefetcher=Null&#10;&#13;eplacement_policy=system.cpu.dcache.replacement_policy&#10;&#13;esponse_latency=2&#10;sequential_access=false&#10;size=65536&#10;system=system&#10;tag_latency=2&#10;tags=system.cpu.dcache.tags&#10;tgts_per_mshr=20&#10;warmup_percentage=0&#10;write_allocator=Null&#10;write_buffers=8&#10;writeback_clean=false">
<path fill="#bab6ae" stroke="#000000" d="M462,-32C462,-32 632,-32 632,-32 638,-32 644,-38 644,-44 644,-44 644,-111 644,-111 644,-117 638,-123 632,-123 632,-123 462,-123 462,-123 456,-123 450,-117 450,-111 450,-111 450,-44 450,-44 450,-38 456,-32 462,-32"/>
<text text-anchor="middle" x="547" y="-107.8" font-family="Arial" font-size="14.00" fill="#000000">dcache </text>
<text text-anchor="middle" x="547" y="-92.8" font-family="Arial" font-size="14.00" fill="#000000">: L1_DCache</text>
</a>
</g>
</g>
<!-- system_system_port -->
<g id="node1" class="node">
<title>system_system_port</title>
<path fill="#b6b8bc" stroke="#000000" d="M441,-493.5C441,-493.5 513,-493.5 513,-493.5 519,-493.5 525,-499.5 525,-505.5 525,-505.5 525,-517.5 525,-517.5 525,-523.5 519,-529.5 513,-529.5 513,-529.5 441,-529.5 441,-529.5 435,-529.5 429,-523.5 429,-517.5 429,-517.5 429,-505.5 429,-505.5 429,-499.5 435,-493.5 441,-493.5"/>
<text text-anchor="middle" x="477" y="-507.8" font-family="Arial" font-size="14.00" fill="#000000">system_port</text>
</g>
<!-- system_membus_slave -->
<g id="node3" class="node">
<title>system_membus_slave</title>
<path fill="#586070" stroke="#000000" d="M462,-362.5C462,-362.5 492,-362.5 492,-362.5 498,-362.5 504,-368.5 504,-374.5 504,-374.5 504,-386.5 504,-386.5 504,-392.5 498,-398.5 492,-398.5 492,-398.5 462,-398.5 462,-398.5 456,-398.5 450,-392.5 450,-386.5 450,-386.5 450,-374.5 450,-374.5 450,-368.5 456,-362.5 462,-362.5"/>
<text text-anchor="middle" x="477" y="-376.8" font-family="Arial" font-size="14.00" fill="#000000">slave</text>
</g>
<!-- system_system_port&#45;&gt;system_membus_slave -->
<g id="edge1" class="edge">
<title>system_system_port&#45;&gt;system_membus_slave</title>
<path fill="none" stroke="#000000" d="M477,-493.285C477,-471.3856 477,-434.3861 477,-408.7663"/>
<polygon fill="#000000" stroke="#000000" points="480.5001,-408.5603 477,-398.5603 473.5001,-408.5603 480.5001,-408.5603"/>
</g>
<!-- system_membus_master -->
<g id="node2" class="node">
<title>system_membus_master</title>
<path fill="#586070" stroke="#000000" d="M382.5,-362.5C382.5,-362.5 419.5,-362.5 419.5,-362.5 425.5,-362.5 431.5,-368.5 431.5,-374.5 431.5,-374.5 431.5,-386.5 431.5,-386.5 431.5,-392.5 425.5,-398.5 419.5,-398.5 419.5,-398.5 382.5,-398.5 382.5,-398.5 376.5,-398.5 370.5,-392.5 370.5,-386.5 370.5,-386.5 370.5,-374.5 370.5,-374.5 370.5,-368.5 376.5,-362.5 382.5,-362.5"/>
<text text-anchor="middle" x="401" y="-376.8" font-family="Arial" font-size="14.00" fill="#000000">master</text>
</g>
<!-- system_mem_ctrls_port -->
<g id="node4" class="node">
<title>system_mem_ctrls_port</title>
<path fill="#4b4746" stroke="#000000" d="M109,-171.5C109,-171.5 139,-171.5 139,-171.5 145,-171.5 151,-177.5 151,-183.5 151,-183.5 151,-195.5 151,-195.5 151,-201.5 145,-207.5 139,-207.5 139,-207.5 109,-207.5 109,-207.5 103,-207.5 97,-201.5 97,-195.5 97,-195.5 97,-183.5 97,-183.5 97,-177.5 103,-171.5 109,-171.5"/>
<text text-anchor="middle" x="124" y="-185.8" font-family="Arial" font-size="14.00" fill="#000000">port</text>
</g>
<!-- system_membus_master&#45;&gt;system_mem_ctrls_port -->
<g id="edge2" class="edge">
<title>system_membus_master&#45;&gt;system_mem_ctrls_port</title>
<path fill="none" stroke="#000000" d="M370.2147,-377.8911C309.7629,-372.4983 180.0827,-359.4941 165,-346 128.7675,-313.5837 122.7879,-253.4558 122.7149,-217.9106"/>
<polygon fill="#000000" stroke="#000000" points="126.217,-217.7736 122.8549,-207.7264 119.2177,-217.6773 126.217,-217.7736"/>
</g>
<!-- system_cpu_icache_mem_side -->
<g id="node7" class="node">
<title>system_cpu_icache_mem_side</title>
<path fill="#94918b" stroke="#000000" d="M209,-40.5C209,-40.5 269,-40.5 269,-40.5 275,-40.5 281,-46.5 281,-52.5 281,-52.5 281,-64.5 281,-64.5 281,-70.5 275,-76.5 269,-76.5 269,-76.5 209,-76.5 209,-76.5 203,-76.5 197,-70.5 197,-64.5 197,-64.5 197,-52.5 197,-52.5 197,-46.5 203,-40.5 209,-40.5"/>
<text text-anchor="middle" x="239" y="-54.8" font-family="Arial" font-size="14.00" fill="#000000">mem_side</text>
</g>
<!-- system_membus_slave&#45;&gt;system_cpu_icache_mem_side -->
<g id="edge3" class="edge">
<title>system_membus_slave&#45;&gt;system_cpu_icache_mem_side</title>
<path fill="none" stroke="#000000" d="M448.2043,-357.1376C445.852,-355.9125 443.4392,-354.8421 441,-354 427.1299,-349.2116 187.2173,-356.5316 177,-346 162.2226,-330.7681 171.0223,-175.3629 177,-155 185.8623,-124.8109 207.4023,-95.1276 222.5951,-76.8255"/>
<polygon fill="#000000" stroke="#000000" points="446.5496,-360.2287 456.9036,-362.4747 450.2102,-354.262 446.5496,-360.2287"/>
</g>
<!-- system_cpu_dtb_walker_port -->
<g id="node9" class="node">
<title>system_cpu_dtb_walker_port</title>
<path fill="#7f7c77" stroke="#000000" d="M586,-171.5C586,-171.5 616,-171.5 616,-171.5 622,-171.5 628,-177.5 628,-183.5 628,-183.5 628,-195.5 628,-195.5 628,-201.5 622,-207.5 616,-207.5 616,-207.5 586,-207.5 586,-207.5 580,-207.5 574,-201.5 574,-195.5 574,-195.5 574,-183.5 574,-183.5 574,-177.5 580,-171.5 586,-171.5"/>
<text text-anchor="middle" x="601" y="-185.8" font-family="Arial" font-size="14.00" fill="#000000">port</text>
</g>
<!-- system_membus_slave&#45;&gt;system_cpu_dtb_walker_port -->
<g id="edge6" class="edge">
<title>system_membus_slave&#45;&gt;system_cpu_dtb_walker_port</title>
<path fill="none" stroke="#000000" d="M513.2616,-368.6508C525.0173,-363.3039 537.2642,-355.9091 546,-346 581.9949,-305.1706 594.8193,-239.3266 599.0666,-207.6581"/>
<polygon fill="#000000" stroke="#000000" points="511.8966,-365.4279 504.0156,-372.5089 514.5922,-371.8881 511.8966,-365.4279"/>
</g>
<!-- system_cpu_itb_walker_port -->
<g id="node10" class="node">
<title>system_cpu_itb_walker_port</title>
<path fill="#7f7c77" stroke="#000000" d="M462,-171.5C462,-171.5 492,-171.5 492,-171.5 498,-171.5 504,-177.5 504,-183.5 504,-183.5 504,-195.5 504,-195.5 504,-201.5 498,-207.5 492,-207.5 492,-207.5 462,-207.5 462,-207.5 456,-207.5 450,-201.5 450,-195.5 450,-195.5 450,-183.5 450,-183.5 450,-177.5 456,-171.5 462,-171.5"/>
<text text-anchor="middle" x="477" y="-185.8" font-family="Arial" font-size="14.00" fill="#000000">port</text>
</g>
<!-- system_membus_slave&#45;&gt;system_cpu_itb_walker_port -->
<g id="edge5" class="edge">
<title>system_membus_slave&#45;&gt;system_cpu_itb_walker_port</title>
<path fill="none" stroke="#000000" d="M477,-352.09C477,-312.3133 477,-241.1585 477,-207.7584"/>
<polygon fill="#000000" stroke="#000000" points="473.5001,-352.1861 477,-362.1861 480.5001,-352.1862 473.5001,-352.1861"/>
</g>
<!-- system_cpu_dcache_mem_side -->
<g id="node11" class="node">
<title>system_cpu_dcache_mem_side</title>
<path fill="#94918b" stroke="#000000" d="M564,-40.5C564,-40.5 624,-40.5 624,-40.5 630,-40.5 636,-46.5 636,-52.5 636,-52.5 636,-64.5 636,-64.5 636,-70.5 630,-76.5 624,-76.5 624,-76.5 564,-76.5 564,-76.5 558,-76.5 552,-70.5 552,-64.5 552,-64.5 552,-52.5 552,-52.5 552,-46.5 558,-40.5 564,-40.5"/>
<text text-anchor="middle" x="594" y="-54.8" font-family="Arial" font-size="14.00" fill="#000000">mem_side</text>
</g>
<!-- system_membus_slave&#45;&gt;system_cpu_dcache_mem_side -->
<g id="edge4" class="edge">
<title>system_membus_slave&#45;&gt;system_cpu_dcache_mem_side</title>
<path fill="none" stroke="#000000" d="M514.311,-377.3313C574.4091,-371.8462 687.1511,-359.8325 699,-346 754.2247,-281.5302 733.1314,-232.725 699,-155 683.9684,-120.7697 650.1383,-93.3466 624.9157,-76.6096"/>
<polygon fill="#000000" stroke="#000000" points="513.736,-373.8687 504.0884,-378.2477 514.361,-380.8408 513.736,-373.8687"/>
</g>
<!-- system_cpu_icache_port -->
<g id="node5" class="node">
<title>system_cpu_icache_port</title>
<path fill="#959ead" stroke="#000000" d="M201,-171.5C201,-171.5 269,-171.5 269,-171.5 275,-171.5 281,-177.5 281,-183.5 281,-183.5 281,-195.5 281,-195.5 281,-201.5 275,-207.5 269,-207.5 269,-207.5 201,-207.5 201,-207.5 195,-207.5 189,-201.5 189,-195.5 189,-195.5 189,-183.5 189,-183.5 189,-177.5 195,-171.5 201,-171.5"/>
<text text-anchor="middle" x="235" y="-185.8" font-family="Arial" font-size="14.00" fill="#000000">icache_port</text>
</g>
<!-- system_cpu_icache_cpu_side -->
<g id="node8" class="node">
<title>system_cpu_icache_cpu_side</title>
<path fill="#94918b" stroke="#000000" d="M311,-40.5C311,-40.5 363,-40.5 363,-40.5 369,-40.5 375,-46.5 375,-52.5 375,-52.5 375,-64.5 375,-64.5 375,-70.5 369,-76.5 363,-76.5 363,-76.5 311,-76.5 311,-76.5 305,-76.5 299,-70.5 299,-64.5 299,-64.5 299,-52.5 299,-52.5 299,-46.5 305,-40.5 311,-40.5"/>
<text text-anchor="middle" x="337" y="-54.8" font-family="Arial" font-size="14.00" fill="#000000">cpu_side</text>
</g>
<!-- system_cpu_icache_port&#45;&gt;system_cpu_icache_cpu_side -->
<g id="edge7" class="edge">
<title>system_cpu_icache_port&#45;&gt;system_cpu_icache_cpu_side</title>
<path fill="none" stroke="#000000" d="M250.4801,-171.3982C261.673,-158.1627 277.0417,-139.6837 290,-123 299.6432,-110.5845 309.9708,-96.5044 318.482,-84.674"/>
<polygon fill="#000000" stroke="#000000" points="321.3488,-86.6821 324.3226,-76.5132 315.6564,-82.6081 321.3488,-86.6821"/>
</g>
<!-- system_cpu_dcache_port -->
<g id="node6" class="node">
<title>system_cpu_dcache_port</title>
<path fill="#959ead" stroke="#000000" d="M311,-171.5C311,-171.5 385,-171.5 385,-171.5 391,-171.5 397,-177.5 397,-183.5 397,-183.5 397,-195.5 397,-195.5 397,-201.5 391,-207.5 385,-207.5 385,-207.5 311,-207.5 311,-207.5 305,-207.5 299,-201.5 299,-195.5 299,-195.5 299,-183.5 299,-183.5 299,-177.5 305,-171.5 311,-171.5"/>
<text text-anchor="middle" x="348" y="-185.8" font-family="Arial" font-size="14.00" fill="#000000">dcache_port</text>
</g>
<!-- system_cpu_dcache_cpu_side -->
<g id="node12" class="node">
<title>system_cpu_dcache_cpu_side</title>
<path fill="#94918b" stroke="#000000" d="M470,-40.5C470,-40.5 522,-40.5 522,-40.5 528,-40.5 534,-46.5 534,-52.5 534,-52.5 534,-64.5 534,-64.5 534,-70.5 528,-76.5 522,-76.5 522,-76.5 470,-76.5 470,-76.5 464,-76.5 458,-70.5 458,-64.5 458,-64.5 458,-52.5 458,-52.5 458,-46.5 464,-40.5 470,-40.5"/>
<text text-anchor="middle" x="496" y="-54.8" font-family="Arial" font-size="14.00" fill="#000000">cpu_side</text>
</g>
<!-- system_cpu_dcache_port&#45;&gt;system_cpu_dcache_cpu_side -->
<g id="edge8" class="edge">
<title>system_cpu_dcache_port&#45;&gt;system_cpu_dcache_cpu_side</title>
<path fill="none" stroke="#000000" d="M368.5788,-171.285C394.4246,-148.4079 438.8873,-109.0525 467.8625,-83.4055"/>
<polygon fill="#000000" stroke="#000000" points="470.4277,-85.8091 475.596,-76.5603 465.7882,-80.5674 470.4277,-85.8091"/>
</g>
</g>
</svg>
