<?xml version="1.0" encoding="UTF-8" standalone="no"?>
<!DOCTYPE svg PUBLIC "-//W3C//DTD SVG 1.1//EN"
 "http://www.w3.org/Graphics/SVG/1.1/DTD/svg11.dtd">
<!-- Generated by graphviz version 2.40.1 (20161225.0304)
 -->
<!-- Title: G Pages: 1 -->
<svg width="955pt" height="638pt"
 viewBox="0.00 0.00 955.00 638.00" xmlns="http://www.w3.org/2000/svg" xmlns:xlink="http://www.w3.org/1999/xlink">
<g id="graph0" class="graph" transform="scale(1 1) rotate(0) translate(4 634)">
<title>G</title>
<polygon fill="#ffffff" stroke="transparent" points="-4,4 -4,-634 951,-634 951,4 -4,4"/>
<g id="clust1" class="cluster">
<title>cluster_root</title>
<g id="a_clust1"><a xlink:title="eventq_index=0&#10;full_system=false&#10;sim_quantum=0&#10;time_sync_enable=false&#10;time_sync_period=100000000000&#10;time_sync_spin_threshold=100000000">
<path fill="#bab6ae" stroke="#000000" d="M20,-8C20,-8 927,-8 927,-8 933,-8 939,-14 939,-20 939,-20 939,-610 939,-610 939,-616 933,-622 927,-622 927,-622 20,-622 20,-622 14,-622 8,-616 8,-610 8,-610 8,-20 8,-20 8,-14 14,-8 20,-8"/>
<text text-anchor="middle" x="473.5" y="-606.8" font-family="Arial" font-size="14.00" fill="#000000">root </text>
<text text-anchor="middle" x="473.5" y="-591.8" font-family="Arial" font-size="14.00" fill="#000000">: Root</text>
</a>
</g>
</g>
<g id="clust2" class="cluster">
<title>cluster_system</title>
<g id="a_clust2"><a xlink:title="boot_osflags=a&#10;cache_line_size=64&#10;eventq_index=0&#10;exit_on_work_items=false&#10;init_param=0&#10;kernel=&#10;kernel_addr_check=true&#10;kernel_extras=&#10;&#10;oad_addr_mask=18446744073709551615&#10;&#10;oad_offset=0&#10;mem_mode=timing&#10;mem_ranges=0:536870911&#10;memories=system.mem_ctrls&#10;mmap_using_noreserve=false&#10;multi_thread=false&#10;&#10;um_work_ids=16&#10;&#13;eadfile=&#10;&#13;edirect_paths=system.redirect_paths0 system.redirect_paths1 system.redirect_paths2 system.redirect_paths3&#10;symbolfile=&#10;thermal_components=&#10;thermal_model=Null&#10;work_begin_ckpt_count=0&#10;work_begin_cpu_id_exit=&#45;1&#10;work_begin_exit_count=0&#10;work_cpus_ckpt_count=0&#10;work_end_ckpt_count=0&#10;work_end_exit_count=0&#10;work_item_id=&#45;1">
<path fill="#e4e7eb" stroke="#000000" d="M28,-16C28,-16 919,-16 919,-16 925,-16 931,-22 931,-28 931,-28 931,-564 931,-564 931,-570 925,-576 919,-576 919,-576 28,-576 28,-576 22,-576 16,-570 16,-564 16,-564 16,-28 16,-28 16,-22 22,-16 28,-16"/>
<text text-anchor="middle" x="473.5" y="-560.8" font-family="Arial" font-size="14.00" fill="#000000">system </text>
<text text-anchor="middle" x="473.5" y="-545.8" font-family="Arial" font-size="14.00" fill="#000000">: System</text>
</a>
</g>
</g>
<g id="clust3" class="cluster">
<title>cluster_system_membus</title>
<g id="a_clust3"><a xlink:title="clk_domain=system.clk_domain&#10;default_p_state=UNDEFINED&#10;eventq_index=0&#10;forward_latency=4&#10;frontend_latency=3&#10;max_outstanding_snoops=512&#10;max_routing_table_size=512&#10;p_state_clk_gate_bins=20&#10;p_state_clk_gate_max=1000000000000&#10;p_state_clk_gate_min=1000&#10;point_of_coherency=true&#10;point_of_unification=true&#10;power_model=&#10;&#13;esponse_latency=2&#10;snoop_filter=system.membus.snoop_filter&#10;snoop_response_latency=4&#10;system=system&#10;use_default_range=false&#10;width=16">
<path fill="#6f798c" stroke="#000000" d="M107,-354C107,-354 233,-354 233,-354 239,-354 245,-360 245,-366 245,-366 245,-433 245,-433 245,-439 239,-445 233,-445 233,-445 107,-445 107,-445 101,-445 95,-439 95,-433 95,-433 95,-366 95,-366 95,-360 101,-354 107,-354"/>
<text text-anchor="middle" x="170" y="-429.8" font-family="Arial" font-size="14.00" fill="#000000">membus </text>
<text text-anchor="middle" x="170" y="-414.8" font-family="Arial" font-size="14.00" fill="#000000">: SystemXBar</text>
</a>
</g>
</g>
<g id="clust9" class="cluster">
<title>cluster_system_tol2bus</title>
<g id="a_clust9"><a xlink:title="clk_domain=system.cpu_clk_domain&#10;default_p_state=UNDEFINED&#10;eventq_index=0&#10;forward_latency=0&#10;frontend_latency=1&#10;max_outstanding_snoops=512&#10;max_routing_table_size=512&#10;p_state_clk_gate_bins=20&#10;p_state_clk_gate_max=1000000000000&#10;p_state_clk_gate_min=1000&#10;point_of_coherency=false&#10;point_of_unification=true&#10;power_model=&#10;&#13;esponse_latency=1&#10;snoop_filter=system.tol2bus.snoop_filter&#10;snoop_response_latency=1&#10;system=system&#10;use_default_range=false&#10;width=32">
<path fill="#6f798c" stroke="#000000" d="M717,-354C717,-354 843,-354 843,-354 849,-354 855,-360 855,-366 855,-366 855,-433 855,-433 855,-439 849,-445 843,-445 843,-445 717,-445 717,-445 711,-445 705,-439 705,-433 705,-433 705,-366 705,-366 705,-360 711,-354 717,-354"/>
<text text-anchor="middle" x="780" y="-429.8" font-family="Arial" font-size="14.00" fill="#000000">tol2bus </text>
<text text-anchor="middle" x="780" y="-414.8" font-family="Arial" font-size="14.00" fill="#000000">: L2XBar</text>
</a>
</g>
</g>
<g id="clust13" class="cluster">
<title>cluster_system_l2</title>
<g id="a_clust13"><a xlink:title="addr_ranges=0:18446744073709551615&#10;assoc=8&#10;clk_domain=system.cpu_clk_domain&#10;clusivity=mostly_incl&#10;compressor=Null&#10;data_latency=20&#10;default_p_state=UNDEFINED&#10;demand_mshr_reserve=1&#10;eventq_index=0&#10;is_read_only=false&#10;max_miss_count=0&#10;mshrs=20&#10;p_state_clk_gate_bins=20&#10;p_state_clk_gate_max=1000000000000&#10;p_state_clk_gate_min=1000&#10;power_model=&#10;prefetch_on_access=false&#10;prefetcher=Null&#10;&#13;eplacement_policy=system.l2.replacement_policy&#10;&#13;esponse_latency=20&#10;sequential_access=false&#10;size=2097152&#10;system=system&#10;tag_latency=20&#10;tags=system.l2.tags&#10;tgts_per_mshr=12&#10;warmup_percentage=0&#10;write_allocator=Null&#10;write_buffers=8&#10;writeback_clean=false">
<path fill="#bab6ae" stroke="#000000" d="M181,-163C181,-163 351,-163 351,-163 357,-163 363,-169 363,-175 363,-175 363,-242 363,-242 363,-248 357,-254 351,-254 351,-254 181,-254 181,-254 175,-254 169,-248 169,-242 169,-242 169,-175 169,-175 169,-169 175,-163 181,-163"/>
<text text-anchor="middle" x="266" y="-238.8" font-family="Arial" font-size="14.00" fill="#000000">l2 </text>
<text text-anchor="middle" x="266" y="-223.8" font-family="Arial" font-size="14.00" fill="#000000">: L2Cache</text>
</a>
</g>
</g>
<g id="clust18" class="cluster">
<title>cluster_system_mem_ctrls</title>
<g id="a_clust18"><a xlink:title="IDD0=0.055&#10;IDD02=0.0&#10;IDD2N=0.032&#10;IDD2N2=0.0&#10;IDD2P0=0.0&#10;IDD2P02=0.0&#10;IDD2P1=0.032&#10;IDD2P12=0.0&#10;IDD3N=0.038&#10;IDD3N2=0.0&#10;IDD3P0=0.0&#10;IDD3P02=0.0&#10;IDD3P1=0.038&#10;IDD3P12=0.0&#10;IDD4R=0.157&#10;IDD4R2=0.0&#10;IDD4W=0.125&#10;IDD4W2=0.0&#10;IDD5=0.235&#10;IDD52=0.0&#10;IDD6=0.02&#10;IDD62=0.0&#10;VDD=1.5&#10;VDD2=0.0&#10;activation_limit=4&#10;addr_mapping=RoRaBaCoCh&#10;bank_groups_per_rank=0&#10;banks_per_rank=8&#10;burst_length=8&#10;clk_domain=system.clk_domain&#10;conf_table_reported=true&#10;default_p_state=UNDEFINED&#10;device_bus_width=8&#10;device_rowbuffer_size=1024&#10;device_size=536870912&#10;devices_per_rank=8&#10;dll=true&#10;enable_dram_powerdown=false&#10;eventq_index=0&#10;in_addr_map=true&#10;kvm_map=true&#10;max_accesses_per_row=16&#10;mem_sched_policy=frfcfs&#10;min_writes_per_switch=16&#10;&#10;ull=false&#10;p_state_clk_gate_bins=20&#10;p_state_clk_gate_max=1000000000000&#10;p_state_clk_gate_min=1000&#10;page_policy=open_adaptive&#10;power_model=&#10;qos_masters= &#160;&#160;&#160;&#160;&#160;&#160;&#160;&#160;&#160;&#160;&#160;&#160;&#160;&#160;&#10;qos_policy=Null&#10;qos_priorities=1&#10;qos_priority_escalation=false&#10;qos_q_policy=fifo&#10;qos_syncro_scheduler=false&#10;qos_turnaround_policy=Null&#10;&#13;ange=0:536870911&#10;&#13;anks_per_channel=2&#10;&#13;ead_buffer_size=32&#10;static_backend_latency=10000&#10;static_frontend_latency=10000&#10;tBURST=5000&#10;tCCD_L=0&#10;tCCD_L_WR=0&#10;tCK=1250&#10;tCL=13750&#10;tCS=2500&#10;tRAS=35000&#10;tRCD=13750&#10;tREFI=7800000&#10;tRFC=260000&#10;tRP=13750&#10;tRRD=6000&#10;tRRD_L=0&#10;tRTP=7500&#10;tRTW=2500&#10;tWR=15000&#10;tWTR=7500&#10;tXAW=30000&#10;tXP=6000&#10;tXPDLL=0&#10;tXS=270000&#10;tXSDLL=0&#10;write_buffer_size=64&#10;write_high_thresh_perc=85&#10;write_low_thresh_perc=50">
<path fill="#5e5958" stroke="#000000" d="M36,-163C36,-163 149,-163 149,-163 155,-163 161,-169 161,-175 161,-175 161,-242 161,-242 161,-248 155,-254 149,-254 149,-254 36,-254 36,-254 30,-254 24,-248 24,-242 24,-242 24,-175 24,-175 24,-169 30,-163 36,-163"/>
<text text-anchor="middle" x="92.5" y="-238.8" font-family="Arial" font-size="14.00" fill="#000000">mem_ctrls </text>
<text text-anchor="middle" x="92.5" y="-223.8" font-family="Arial" font-size="14.00" fill="#000000">: DDR3_1600_8x8</text>
</a>
</g>
</g>
<g id="clust21" class="cluster">
<title>cluster_system_cpu</title>
<g id="a_clust21"><a xlink:title="branchPred=system.cpu.branchPred&#10;checker=Null&#10;clk_domain=system.cpu_clk_domain&#10;cpu_id=0&#10;decodeCycleInput=true&#10;decodeInputBufferSize=3&#10;decodeInputWidth=2&#10;decodeToExecuteForwardDelay=1&#10;default_p_state=UNDEFINED&#10;do_checkpoint_insts=true&#10;do_quiesce=true&#10;do_statistics_insts=true&#10;dtb=system.cpu.dtb&#10;enableIdling=true&#10;eventq_index=0&#10;executeAllowEarlyMemoryIssue=true&#10;executeBranchDelay=1&#10;executeCommitLimit=2&#10;executeCycleInput=true&#10;executeFuncUnits=system.cpu.executeFuncUnits&#10;executeInputBufferSize=7&#10;executeInputWidth=2&#10;executeIssueLimit=2&#10;executeLSQMaxStoreBufferStoresPerCycle=2&#10;executeLSQRequestsQueueSize=1&#10;executeLSQStoreBufferSize=5&#10;executeLSQTransfersQueueSize=2&#10;executeMaxAccessesInMemory=2&#10;executeMemoryCommitLimit=1&#10;executeMemoryIssueLimit=1&#10;executeMemoryWidth=0&#10;executeSetTraceTimeOnCommit=true&#10;executeSetTraceTimeOnIssue=false&#10;fetch1FetchLimit=1&#10;fetch1LineSnapWidth=0&#10;fetch1LineWidth=0&#10;fetch1ToFetch2BackwardDelay=1&#10;fetch1ToFetch2ForwardDelay=1&#10;fetch2CycleInput=true&#10;fetch2InputBufferSize=2&#10;fetch2ToDecodeForwardDelay=1&#10;function_trace=false&#10;function_trace_start=0&#10;interrupts=system.cpu.interrupts&#10;isa=system.cpu.isa&#10;itb=system.cpu.itb&#10;max_insts_all_threads=0&#10;max_insts_any_thread=100000000&#10;&#10;umThreads=1&#10;p_state_clk_gate_bins=20&#10;p_state_clk_gate_max=1000000000000&#10;p_state_clk_gate_min=1000&#10;power_gating_on_idle=false&#10;power_model=&#10;profile=0&#10;progress_interval=0&#10;pwr_gating_latency=300&#10;simpoint_start_insts=&#10;socket_id=0&#10;switched_out=false&#10;syscallRetryLatency=10000&#10;system=system&#10;threadPolicy=RoundRobin&#10;tracer=system.cpu.tracer&#10;wait_for_remote_gdb=false&#10;workload=system.cpu.workload">
<path fill="#bbc6d9" stroke="#000000" d="M383,-24C383,-24 889,-24 889,-24 895,-24 901,-30 901,-36 901,-36 901,-334 901,-334 901,-340 895,-346 889,-346 889,-346 383,-346 383,-346 377,-346 371,-340 371,-334 371,-334 371,-36 371,-36 371,-30 377,-24 383,-24"/>
<text text-anchor="middle" x="636" y="-330.8" font-family="Arial" font-size="14.00" fill="#000000">cpu </text>
<text text-anchor="middle" x="636" y="-315.8" font-family="Arial" font-size="14.00" fill="#000000">: MinorCPU</text>
</a>
</g>
</g>
<g id="clust23" class="cluster">
<title>cluster_system_cpu_dtb</title>
<g id="a_clust23"><a xlink:title="eventq_index=0&#10;is_stage2=false&#10;size=64&#10;sys=system&#10;walker=system.cpu.dtb.walker">
<path fill="#bab6ae" stroke="#000000" d="M760,-155C760,-155 881,-155 881,-155 887,-155 893,-161 893,-167 893,-167 893,-288 893,-288 893,-294 887,-300 881,-300 881,-300 760,-300 760,-300 754,-300 748,-294 748,-288 748,-288 748,-167 748,-167 748,-161 754,-155 760,-155"/>
<text text-anchor="middle" x="820.5" y="-284.8" font-family="Arial" font-size="14.00" fill="#000000">dtb </text>
<text text-anchor="middle" x="820.5" y="-269.8" font-family="Arial" font-size="14.00" fill="#000000">: ArmDTB</text>
</a>
</g>
</g>
<g id="clust24" class="cluster">
<title>cluster_system_cpu_dtb_walker</title>
<g id="a_clust24"><a xlink:title="clk_domain=system.cpu_clk_domain&#10;default_p_state=UNDEFINED&#10;eventq_index=0&#10;is_stage2=false&#10;&#10;um_squash_per_cycle=2&#10;p_state_clk_gate_bins=20&#10;p_state_clk_gate_max=1000000000000&#10;p_state_clk_gate_min=1000&#10;power_model=&#10;sys=system">
<path fill="#9f9c95" stroke="#000000" d="M768,-163C768,-163 873,-163 873,-163 879,-163 885,-169 885,-175 885,-175 885,-242 885,-242 885,-248 879,-254 873,-254 873,-254 768,-254 768,-254 762,-254 756,-248 756,-242 756,-242 756,-175 756,-175 756,-169 762,-163 768,-163"/>
<text text-anchor="middle" x="820.5" y="-238.8" font-family="Arial" font-size="14.00" fill="#000000">walker </text>
<text text-anchor="middle" x="820.5" y="-223.8" font-family="Arial" font-size="14.00" fill="#000000">: ArmTableWalker</text>
</a>
</g>
</g>
<g id="clust111" class="cluster">
<title>cluster_system_cpu_icache</title>
<g id="a_clust111"><a xlink:title="addr_ranges=0:18446744073709551615&#10;assoc=2&#10;clk_domain=system.cpu_clk_domain&#10;clusivity=mostly_incl&#10;compressor=Null&#10;data_latency=2&#10;default_p_state=UNDEFINED&#10;demand_mshr_reserve=1&#10;eventq_index=0&#10;is_read_only=true&#10;max_miss_count=0&#10;mshrs=4&#10;p_state_clk_gate_bins=20&#10;p_state_clk_gate_max=1000000000000&#10;p_state_clk_gate_min=1000&#10;power_model=&#10;prefetch_on_access=false&#10;prefetcher=Null&#10;&#13;eplacement_policy=system.cpu.icache.replacement_policy&#10;&#13;esponse_latency=2&#10;sequential_access=false&#10;size=32768&#10;system=system&#10;tag_latency=2&#10;tags=system.cpu.icache.tags&#10;tgts_per_mshr=20&#10;warmup_percentage=0&#10;write_allocator=Null&#10;write_buffers=8&#10;writeback_clean=true">
<path fill="#bab6ae" stroke="#000000" d="M450,-32C450,-32 620,-32 620,-32 626,-32 632,-38 632,-44 632,-44 632,-111 632,-111 632,-117 626,-123 620,-123 620,-123 450,-123 450,-123 444,-123 438,-117 438,-111 438,-111 438,-44 438,-44 438,-38 444,-32 450,-32"/>
<text text-anchor="middle" x="535" y="-107.8" font-family="Arial" font-size="14.00" fill="#000000">icache </text>
<text text-anchor="middle" x="535" y="-92.8" font-family="Arial" font-size="14.00" fill="#000000">: L1_ICache</text>
</a>
</g>
</g>
<g id="clust115" class="cluster">
<title>cluster_system_cpu_dcache</title>
<g id="a_clust115"><a xlink:title="addr_ranges=0:18446744073709551615&#10;assoc=2&#10;clk_domain=system.cpu_clk_domain&#10;clusivity=mostly_incl&#10;compressor=Null&#10;data_latency=2&#10;default_p_state=UNDEFINED&#10;demand_mshr_reserve=1&#10;eventq_index=0&#10;is_read_only=false&#10;max_miss_count=0&#10;mshrs=4&#10;p_state_clk_gate_bins=20&#10;p_state_clk_gate_max=1000000000000&#10;p_state_clk_gate_min=1000&#10;power_model=&#10;prefetch_on_access=false&#10;prefetcher=Null&#10;&#13;eplacement_policy=system.cpu.dcache.replacement_policy&#10;&#13;esponse_latency=2&#10;sequential_access=false&#10;size=65536&#10;system=system&#10;tag_latency=2&#10;tags=system.cpu.dcache.tags&#10;tgts_per_mshr=20&#10;warmup_percentage=0&#10;write_allocator=Null&#10;write_buffers=8&#10;writeback_clean=false">
<path fill="#bab6ae" stroke="#000000" d="M681,-32C681,-32 851,-32 851,-32 857,-32 863,-38 863,-44 863,-44 863,-111 863,-111 863,-117 857,-123 851,-123 851,-123 681,-123 681,-123 675,-123 669,-117 669,-111 669,-111 669,-44 669,-44 669,-38 675,-32 681,-32"/>
<text text-anchor="middle" x="766" y="-107.8" font-family="Arial" font-size="14.00" fill="#000000">dcache </text>
<text text-anchor="middle" x="766" y="-92.8" font-family="Arial" font-size="14.00" fill="#000000">: L1_DCache</text>
</a>
</g>
</g>
<g id="clust123" class="cluster">
<title>cluster_system_cpu_itb</title>
<g id="a_clust123"><a xlink:title="eventq_index=0&#10;is_stage2=false&#10;size=64&#10;sys=system&#10;walker=system.cpu.itb.walker">
<path fill="#bab6ae" stroke="#000000" d="M607,-155C607,-155 728,-155 728,-155 734,-155 740,-161 740,-167 740,-167 740,-288 740,-288 740,-294 734,-300 728,-300 728,-300 607,-300 607,-300 601,-300 595,-294 595,-288 595,-288 595,-167 595,-167 595,-161 601,-155 607,-155"/>
<text text-anchor="middle" x="667.5" y="-284.8" font-family="Arial" font-size="14.00" fill="#000000">itb </text>
<text text-anchor="middle" x="667.5" y="-269.8" font-family="Arial" font-size="14.00" fill="#000000">: ArmITB</text>
</a>
</g>
</g>
<g id="clust124" class="cluster">
<title>cluster_system_cpu_itb_walker</title>
<g id="a_clust124"><a xlink:title="clk_domain=system.cpu_clk_domain&#10;default_p_state=UNDEFINED&#10;eventq_index=0&#10;is_stage2=false&#10;&#10;um_squash_per_cycle=2&#10;p_state_clk_gate_bins=20&#10;p_state_clk_gate_max=1000000000000&#10;p_state_clk_gate_min=1000&#10;power_model=&#10;sys=system">
<path fill="#9f9c95" stroke="#000000" d="M615,-163C615,-163 720,-163 720,-163 726,-163 732,-169 732,-175 732,-175 732,-242 732,-242 732,-248 726,-254 720,-254 720,-254 615,-254 615,-254 609,-254 603,-248 603,-242 603,-242 603,-175 603,-175 603,-169 609,-163 615,-163"/>
<text text-anchor="middle" x="667.5" y="-238.8" font-family="Arial" font-size="14.00" fill="#000000">walker </text>
<text text-anchor="middle" x="667.5" y="-223.8" font-family="Arial" font-size="14.00" fill="#000000">: ArmTableWalker</text>
</a>
</g>
</g>
<!-- system_system_port -->
<g id="node1" class="node">
<title>system_system_port</title>
<path fill="#b6b8bc" stroke="#000000" d="M174,-493.5C174,-493.5 246,-493.5 246,-493.5 252,-493.5 258,-499.5 258,-505.5 258,-505.5 258,-517.5 258,-517.5 258,-523.5 252,-529.5 246,-529.5 246,-529.5 174,-529.5 174,-529.5 168,-529.5 162,-523.5 162,-517.5 162,-517.5 162,-505.5 162,-505.5 162,-499.5 168,-493.5 174,-493.5"/>
<text text-anchor="middle" x="210" y="-507.8" font-family="Arial" font-size="14.00" fill="#000000">system_port</text>
</g>
<!-- system_membus_slave -->
<g id="node3" class="node">
<title>system_membus_slave</title>
<path fill="#586070" stroke="#000000" d="M195,-362.5C195,-362.5 225,-362.5 225,-362.5 231,-362.5 237,-368.5 237,-374.5 237,-374.5 237,-386.5 237,-386.5 237,-392.5 231,-398.5 225,-398.5 225,-398.5 195,-398.5 195,-398.5 189,-398.5 183,-392.5 183,-386.5 183,-386.5 183,-374.5 183,-374.5 183,-368.5 189,-362.5 195,-362.5"/>
<text text-anchor="middle" x="210" y="-376.8" font-family="Arial" font-size="14.00" fill="#000000">slave</text>
</g>
<!-- system_system_port&#45;&gt;system_membus_slave -->
<g id="edge1" class="edge">
<title>system_system_port&#45;&gt;system_membus_slave</title>
<path fill="none" stroke="#000000" d="M210,-493.285C210,-471.3856 210,-434.3861 210,-408.7663"/>
<polygon fill="#000000" stroke="#000000" points="213.5001,-408.5603 210,-398.5603 206.5001,-408.5603 213.5001,-408.5603"/>
</g>
<!-- system_membus_master -->
<g id="node2" class="node">
<title>system_membus_master</title>
<path fill="#586070" stroke="#000000" d="M115.5,-362.5C115.5,-362.5 152.5,-362.5 152.5,-362.5 158.5,-362.5 164.5,-368.5 164.5,-374.5 164.5,-374.5 164.5,-386.5 164.5,-386.5 164.5,-392.5 158.5,-398.5 152.5,-398.5 152.5,-398.5 115.5,-398.5 115.5,-398.5 109.5,-398.5 103.5,-392.5 103.5,-386.5 103.5,-386.5 103.5,-374.5 103.5,-374.5 103.5,-368.5 109.5,-362.5 115.5,-362.5"/>
<text text-anchor="middle" x="134" y="-376.8" font-family="Arial" font-size="14.00" fill="#000000">master</text>
</g>
<!-- system_mem_ctrls_port -->
<g id="node8" class="node">
<title>system_mem_ctrls_port</title>
<path fill="#4b4746" stroke="#000000" d="M111,-171.5C111,-171.5 141,-171.5 141,-171.5 147,-171.5 153,-177.5 153,-183.5 153,-183.5 153,-195.5 153,-195.5 153,-201.5 147,-207.5 141,-207.5 141,-207.5 111,-207.5 111,-207.5 105,-207.5 99,-201.5 99,-195.5 99,-195.5 99,-183.5 99,-183.5 99,-177.5 105,-171.5 111,-171.5"/>
<text text-anchor="middle" x="126" y="-185.8" font-family="Arial" font-size="14.00" fill="#000000">port</text>
</g>
<!-- system_membus_master&#45;&gt;system_mem_ctrls_port -->
<g id="edge2" class="edge">
<title>system_membus_master&#45;&gt;system_mem_ctrls_port</title>
<path fill="none" stroke="#000000" d="M133.2329,-362.1861C131.8322,-328.7443 128.8518,-257.586 127.1872,-217.8441"/>
<polygon fill="#000000" stroke="#000000" points="130.6803,-217.6032 126.7648,-207.7584 123.6864,-217.8962 130.6803,-217.6032"/>
</g>
<!-- system_l2_mem_side -->
<g id="node6" class="node">
<title>system_l2_mem_side</title>
<path fill="#94918b" stroke="#000000" d="M189,-171.5C189,-171.5 249,-171.5 249,-171.5 255,-171.5 261,-177.5 261,-183.5 261,-183.5 261,-195.5 261,-195.5 261,-201.5 255,-207.5 249,-207.5 249,-207.5 189,-207.5 189,-207.5 183,-207.5 177,-201.5 177,-195.5 177,-195.5 177,-183.5 177,-183.5 177,-177.5 183,-171.5 189,-171.5"/>
<text text-anchor="middle" x="219" y="-185.8" font-family="Arial" font-size="14.00" fill="#000000">mem_side</text>
</g>
<!-- system_membus_slave&#45;&gt;system_l2_mem_side -->
<g id="edge3" class="edge">
<title>system_membus_slave&#45;&gt;system_l2_mem_side</title>
<path fill="none" stroke="#000000" d="M211.3387,-352.09C213.213,-312.3133 216.5658,-241.1585 218.1397,-207.7584"/>
<polygon fill="#000000" stroke="#000000" points="207.8376,-352.0324 210.863,-362.1861 214.8299,-352.362 207.8376,-352.0324"/>
</g>
<!-- system_tol2bus_master -->
<g id="node4" class="node">
<title>system_tol2bus_master</title>
<path fill="#586070" stroke="#000000" d="M725.5,-362.5C725.5,-362.5 762.5,-362.5 762.5,-362.5 768.5,-362.5 774.5,-368.5 774.5,-374.5 774.5,-374.5 774.5,-386.5 774.5,-386.5 774.5,-392.5 768.5,-398.5 762.5,-398.5 762.5,-398.5 725.5,-398.5 725.5,-398.5 719.5,-398.5 713.5,-392.5 713.5,-386.5 713.5,-386.5 713.5,-374.5 713.5,-374.5 713.5,-368.5 719.5,-362.5 725.5,-362.5"/>
<text text-anchor="middle" x="744" y="-376.8" font-family="Arial" font-size="14.00" fill="#000000">master</text>
</g>
<!-- system_l2_cpu_side -->
<g id="node7" class="node">
<title>system_l2_cpu_side</title>
<path fill="#94918b" stroke="#000000" d="M291,-171.5C291,-171.5 343,-171.5 343,-171.5 349,-171.5 355,-177.5 355,-183.5 355,-183.5 355,-195.5 355,-195.5 355,-201.5 349,-207.5 343,-207.5 343,-207.5 291,-207.5 291,-207.5 285,-207.5 279,-201.5 279,-195.5 279,-195.5 279,-183.5 279,-183.5 279,-177.5 285,-171.5 291,-171.5"/>
<text text-anchor="middle" x="317" y="-185.8" font-family="Arial" font-size="14.00" fill="#000000">cpu_side</text>
</g>
<!-- system_tol2bus_master&#45;&gt;system_l2_cpu_side -->
<g id="edge4" class="edge">
<title>system_tol2bus_master&#45;&gt;system_l2_cpu_side</title>
<path fill="none" stroke="#000000" d="M713.2518,-379.6122C628.1111,-376.8885 393.7802,-367.4975 367,-346 328.297,-314.9317 319.1071,-253.7978 317.1908,-217.8215"/>
<polygon fill="#000000" stroke="#000000" points="320.6771,-217.3871 316.805,-207.5252 313.682,-217.6493 320.6771,-217.3871"/>
</g>
<!-- system_tol2bus_slave -->
<g id="node5" class="node">
<title>system_tol2bus_slave</title>
<path fill="#586070" stroke="#000000" d="M805,-362.5C805,-362.5 835,-362.5 835,-362.5 841,-362.5 847,-368.5 847,-374.5 847,-374.5 847,-386.5 847,-386.5 847,-392.5 841,-398.5 835,-398.5 835,-398.5 805,-398.5 805,-398.5 799,-398.5 793,-392.5 793,-386.5 793,-386.5 793,-374.5 793,-374.5 793,-368.5 799,-362.5 805,-362.5"/>
<text text-anchor="middle" x="820" y="-376.8" font-family="Arial" font-size="14.00" fill="#000000">slave</text>
</g>
<!-- system_cpu_dtb_walker_port -->
<g id="node11" class="node">
<title>system_cpu_dtb_walker_port</title>
<path fill="#7f7c77" stroke="#000000" d="M805,-171.5C805,-171.5 835,-171.5 835,-171.5 841,-171.5 847,-177.5 847,-183.5 847,-183.5 847,-195.5 847,-195.5 847,-201.5 841,-207.5 835,-207.5 835,-207.5 805,-207.5 805,-207.5 799,-207.5 793,-201.5 793,-195.5 793,-195.5 793,-183.5 793,-183.5 793,-177.5 799,-171.5 805,-171.5"/>
<text text-anchor="middle" x="820" y="-185.8" font-family="Arial" font-size="14.00" fill="#000000">port</text>
</g>
<!-- system_tol2bus_slave&#45;&gt;system_cpu_dtb_walker_port -->
<g id="edge8" class="edge">
<title>system_tol2bus_slave&#45;&gt;system_cpu_dtb_walker_port</title>
<path fill="none" stroke="#000000" d="M820,-352.09C820,-312.3133 820,-241.1585 820,-207.7584"/>
<polygon fill="#000000" stroke="#000000" points="816.5001,-352.1861 820,-362.1861 823.5001,-352.1862 816.5001,-352.1861"/>
</g>
<!-- system_cpu_icache_mem_side -->
<g id="node12" class="node">
<title>system_cpu_icache_mem_side</title>
<path fill="#94918b" stroke="#000000" d="M552,-40.5C552,-40.5 612,-40.5 612,-40.5 618,-40.5 624,-46.5 624,-52.5 624,-52.5 624,-64.5 624,-64.5 624,-70.5 618,-76.5 612,-76.5 612,-76.5 552,-76.5 552,-76.5 546,-76.5 540,-70.5 540,-64.5 540,-64.5 540,-52.5 540,-52.5 540,-46.5 546,-40.5 552,-40.5"/>
<text text-anchor="middle" x="582" y="-54.8" font-family="Arial" font-size="14.00" fill="#000000">mem_side</text>
</g>
<!-- system_tol2bus_slave&#45;&gt;system_cpu_icache_mem_side -->
<g id="edge5" class="edge">
<title>system_tol2bus_slave&#45;&gt;system_cpu_icache_mem_side</title>
<path fill="none" stroke="#000000" d="M856.492,-370.9252C869.0161,-365.7021 881.7058,-357.8023 889,-346 900.1572,-327.9473 902.9048,-171.0324 889,-155 856.0544,-117.0134 711.2891,-142.6396 665,-123 639.6325,-112.2371 615.3137,-91.7305 599.6323,-76.7193"/>
<polygon fill="#000000" stroke="#000000" points="855.2063,-367.6689 847.0392,-374.4179 857.6324,-374.2351 855.2063,-367.6689"/>
</g>
<!-- system_cpu_dcache_mem_side -->
<g id="node14" class="node">
<title>system_cpu_dcache_mem_side</title>
<path fill="#94918b" stroke="#000000" d="M783,-40.5C783,-40.5 843,-40.5 843,-40.5 849,-40.5 855,-46.5 855,-52.5 855,-52.5 855,-64.5 855,-64.5 855,-70.5 849,-76.5 843,-76.5 843,-76.5 783,-76.5 783,-76.5 777,-76.5 771,-70.5 771,-64.5 771,-64.5 771,-52.5 771,-52.5 771,-46.5 777,-40.5 783,-40.5"/>
<text text-anchor="middle" x="813" y="-54.8" font-family="Arial" font-size="14.00" fill="#000000">mem_side</text>
</g>
<!-- system_tol2bus_slave&#45;&gt;system_cpu_dcache_mem_side -->
<g id="edge6" class="edge">
<title>system_tol2bus_slave&#45;&gt;system_cpu_dcache_mem_side</title>
<path fill="none" stroke="#000000" d="M856.8713,-375.6474C875.1857,-371.1691 895.7538,-362.5579 907,-346 954.6957,-275.7772 938.9703,-233.6386 907,-155 893.5233,-121.851 862.5794,-93.8563 839.8607,-76.6955"/>
<polygon fill="#000000" stroke="#000000" points="856.0615,-372.2412 847.0019,-377.7344 857.5097,-379.0897 856.0615,-372.2412"/>
</g>
<!-- system_cpu_itb_walker_port -->
<g id="node16" class="node">
<title>system_cpu_itb_walker_port</title>
<path fill="#7f7c77" stroke="#000000" d="M682,-171.5C682,-171.5 712,-171.5 712,-171.5 718,-171.5 724,-177.5 724,-183.5 724,-183.5 724,-195.5 724,-195.5 724,-201.5 718,-207.5 712,-207.5 712,-207.5 682,-207.5 682,-207.5 676,-207.5 670,-201.5 670,-195.5 670,-195.5 670,-183.5 670,-183.5 670,-177.5 676,-171.5 682,-171.5"/>
<text text-anchor="middle" x="697" y="-185.8" font-family="Arial" font-size="14.00" fill="#000000">port</text>
</g>
<!-- system_tol2bus_slave&#45;&gt;system_cpu_itb_walker_port -->
<g id="edge7" class="edge">
<title>system_tol2bus_slave&#45;&gt;system_cpu_itb_walker_port</title>
<path fill="none" stroke="#000000" d="M789.3556,-356.7855C787.5818,-355.7801 785.7907,-354.8425 784,-354 770.7349,-347.7589 762.8367,-355.8732 752,-346 711.4455,-309.0511 700.7915,-240.4314 697.9945,-207.7363"/>
<polygon fill="#000000" stroke="#000000" points="787.6742,-359.8634 797.9966,-362.2509 791.4161,-353.9474 787.6742,-359.8634"/>
</g>
<!-- system_cpu_icache_port -->
<g id="node9" class="node">
<title>system_cpu_icache_port</title>
<path fill="#959ead" stroke="#000000" d="M391,-171.5C391,-171.5 459,-171.5 459,-171.5 465,-171.5 471,-177.5 471,-183.5 471,-183.5 471,-195.5 471,-195.5 471,-201.5 465,-207.5 459,-207.5 459,-207.5 391,-207.5 391,-207.5 385,-207.5 379,-201.5 379,-195.5 379,-195.5 379,-183.5 379,-183.5 379,-177.5 385,-171.5 391,-171.5"/>
<text text-anchor="middle" x="425" y="-185.8" font-family="Arial" font-size="14.00" fill="#000000">icache_port</text>
</g>
<!-- system_cpu_icache_cpu_side -->
<g id="node13" class="node">
<title>system_cpu_icache_cpu_side</title>
<path fill="#94918b" stroke="#000000" d="M458,-40.5C458,-40.5 510,-40.5 510,-40.5 516,-40.5 522,-46.5 522,-52.5 522,-52.5 522,-64.5 522,-64.5 522,-70.5 516,-76.5 510,-76.5 510,-76.5 458,-76.5 458,-76.5 452,-76.5 446,-70.5 446,-64.5 446,-64.5 446,-52.5 446,-52.5 446,-46.5 452,-40.5 458,-40.5"/>
<text text-anchor="middle" x="484" y="-54.8" font-family="Arial" font-size="14.00" fill="#000000">cpu_side</text>
</g>
<!-- system_cpu_icache_port&#45;&gt;system_cpu_icache_cpu_side -->
<g id="edge9" class="edge">
<title>system_cpu_icache_port&#45;&gt;system_cpu_icache_cpu_side</title>
<path fill="none" stroke="#000000" d="M433.2037,-171.285C443.1989,-149.0923 460.1783,-111.3923 471.7302,-85.7431"/>
<polygon fill="#000000" stroke="#000000" points="474.9507,-87.1155 475.866,-76.5603 468.5681,-84.2409 474.9507,-87.1155"/>
</g>
<!-- system_cpu_dcache_port -->
<g id="node10" class="node">
<title>system_cpu_dcache_port</title>
<path fill="#959ead" stroke="#000000" d="M501,-171.5C501,-171.5 575,-171.5 575,-171.5 581,-171.5 587,-177.5 587,-183.5 587,-183.5 587,-195.5 587,-195.5 587,-201.5 581,-207.5 575,-207.5 575,-207.5 501,-207.5 501,-207.5 495,-207.5 489,-201.5 489,-195.5 489,-195.5 489,-183.5 489,-183.5 489,-177.5 495,-171.5 501,-171.5"/>
<text text-anchor="middle" x="538" y="-185.8" font-family="Arial" font-size="14.00" fill="#000000">dcache_port</text>
</g>
<!-- system_cpu_dcache_cpu_side -->
<g id="node15" class="node">
<title>system_cpu_dcache_cpu_side</title>
<path fill="#94918b" stroke="#000000" d="M689,-40.5C689,-40.5 741,-40.5 741,-40.5 747,-40.5 753,-46.5 753,-52.5 753,-52.5 753,-64.5 753,-64.5 753,-70.5 747,-76.5 741,-76.5 741,-76.5 689,-76.5 689,-76.5 683,-76.5 677,-70.5 677,-64.5 677,-64.5 677,-52.5 677,-52.5 677,-46.5 683,-40.5 689,-40.5"/>
<text text-anchor="middle" x="715" y="-54.8" font-family="Arial" font-size="14.00" fill="#000000">cpu_side</text>
</g>
<!-- system_cpu_dcache_port&#45;&gt;system_cpu_dcache_cpu_side -->
<g id="edge10" class="edge">
<title>system_cpu_dcache_port&#45;&gt;system_cpu_dcache_cpu_side</title>
<path fill="none" stroke="#000000" d="M566.339,-171.2273C586.1612,-158.2157 613.0837,-140.0781 636,-123 653.01,-110.3235 671.4022,-95.3845 686.157,-83.0775"/>
<polygon fill="#000000" stroke="#000000" points="688.5359,-85.6504 693.948,-76.5422 684.0372,-80.2874 688.5359,-85.6504"/>
</g>
</g>
</svg>
