<?xml version="1.0" encoding="UTF-8" standalone="no"?>
<!DOCTYPE svg PUBLIC "-//W3C//DTD SVG 1.1//EN"
 "http://www.w3.org/Graphics/SVG/1.1/DTD/svg11.dtd">
<!-- Generated by graphviz version 2.40.1 (20161225.0304)
 -->
<!-- Title: G Pages: 1 -->
<svg width="753pt" height="638pt"
 viewBox="0.00 0.00 753.00 638.00" xmlns="http://www.w3.org/2000/svg" xmlns:xlink="http://www.w3.org/1999/xlink">
<g id="graph0" class="graph" transform="scale(1 1) rotate(0) translate(4 634)">
<title>G</title>
<polygon fill="#ffffff" stroke="transparent" points="-4,4 -4,-634 749,-634 749,4 -4,4"/>
<g id="clust1" class="cluster">
<title>cluster_root</title>
<g id="a_clust1"><a xlink:title="eventq_index=0&#10;full_system=false&#10;sim_quantum=0&#10;time_sync_enable=false&#10;time_sync_period=100000000000&#10;time_sync_spin_threshold=100000000">
<path fill="#bab6ae" stroke="#000000" d="M20,-8C20,-8 725,-8 725,-8 731,-8 737,-14 737,-20 737,-20 737,-610 737,-610 737,-616 731,-622 725,-622 725,-622 20,-622 20,-622 14,-622 8,-616 8,-610 8,-610 8,-20 8,-20 8,-14 14,-8 20,-8"/>
<text text-anchor="middle" x="372.5" y="-606.8" font-family="Arial" font-size="14.00" fill="#000000">root </text>
<text text-anchor="middle" x="372.5" y="-591.8" font-family="Arial" font-size="14.00" fill="#000000">: Root</text>
</a>
</g>
</g>
<g id="clust2" class="cluster">
<title>cluster_system</title>
<g id="a_clust2"><a xlink:title="boot_osflags=a&#10;cache_line_size=64&#10;eventq_index=0&#10;exit_on_work_items=false&#10;init_param=0&#10;kernel=&#10;kernel_addr_check=true&#10;kernel_extras=&#10;&#10;oad_addr_mask=18446744073709551615&#10;&#10;oad_offset=0&#10;mem_mode=timing&#10;mem_ranges=0:536870911&#10;memories=system.mem_ctrls&#10;mmap_using_noreserve=false&#10;multi_thread=false&#10;&#10;um_work_ids=16&#10;&#13;eadfile=&#10;&#13;edirect_paths=system.redirect_paths0 system.redirect_paths1 system.redirect_paths2 system.redirect_paths3&#10;symbolfile=&#10;thermal_components=&#10;thermal_model=Null&#10;work_begin_ckpt_count=0&#10;work_begin_cpu_id_exit=&#45;1&#10;work_begin_exit_count=0&#10;work_cpus_ckpt_count=0&#10;work_end_ckpt_count=0&#10;work_end_exit_count=0&#10;work_item_id=&#45;1">
<path fill="#e4e7eb" stroke="#000000" d="M28,-16C28,-16 717,-16 717,-16 723,-16 729,-22 729,-28 729,-28 729,-564 729,-564 729,-570 723,-576 717,-576 717,-576 28,-576 28,-576 22,-576 16,-570 16,-564 16,-564 16,-28 16,-28 16,-22 22,-16 28,-16"/>
<text text-anchor="middle" x="372.5" y="-560.8" font-family="Arial" font-size="14.00" fill="#000000">system </text>
<text text-anchor="middle" x="372.5" y="-545.8" font-family="Arial" font-size="14.00" fill="#000000">: System</text>
</a>
</g>
</g>
<g id="clust3" class="cluster">
<title>cluster_system_membus</title>
<g id="a_clust3"><a xlink:title="clk_domain=system.clk_domain&#10;default_p_state=UNDEFINED&#10;eventq_index=0&#10;forward_latency=4&#10;frontend_latency=3&#10;max_outstanding_snoops=512&#10;max_routing_table_size=512&#10;p_state_clk_gate_bins=20&#10;p_state_clk_gate_max=1000000000000&#10;p_state_clk_gate_min=1000&#10;point_of_coherency=true&#10;point_of_unification=true&#10;power_model=&#10;&#13;esponse_latency=2&#10;snoop_filter=system.membus.snoop_filter&#10;snoop_response_latency=4&#10;system=system&#10;use_default_range=false&#10;width=16">
<path fill="#6f798c" stroke="#000000" d="M515,-354C515,-354 641,-354 641,-354 647,-354 653,-360 653,-366 653,-366 653,-433 653,-433 653,-439 647,-445 641,-445 641,-445 515,-445 515,-445 509,-445 503,-439 503,-433 503,-433 503,-366 503,-366 503,-360 509,-354 515,-354"/>
<text text-anchor="middle" x="578" y="-429.8" font-family="Arial" font-size="14.00" fill="#000000">membus </text>
<text text-anchor="middle" x="578" y="-414.8" font-family="Arial" font-size="14.00" fill="#000000">: SystemXBar</text>
</a>
</g>
</g>
<g id="clust12" class="cluster">
<title>cluster_system_mem_ctrls</title>
<g id="a_clust12"><a xlink:title="IDD0=0.055&#10;IDD02=0.0&#10;IDD2N=0.032&#10;IDD2N2=0.0&#10;IDD2P0=0.0&#10;IDD2P02=0.0&#10;IDD2P1=0.032&#10;IDD2P12=0.0&#10;IDD3N=0.038&#10;IDD3N2=0.0&#10;IDD3P0=0.0&#10;IDD3P02=0.0&#10;IDD3P1=0.038&#10;IDD3P12=0.0&#10;IDD4R=0.157&#10;IDD4R2=0.0&#10;IDD4W=0.125&#10;IDD4W2=0.0&#10;IDD5=0.235&#10;IDD52=0.0&#10;IDD6=0.02&#10;IDD62=0.0&#10;VDD=1.5&#10;VDD2=0.0&#10;activation_limit=4&#10;addr_mapping=RoRaBaCoCh&#10;bank_groups_per_rank=0&#10;banks_per_rank=8&#10;burst_length=8&#10;clk_domain=system.clk_domain&#10;conf_table_reported=true&#10;default_p_state=UNDEFINED&#10;device_bus_width=8&#10;device_rowbuffer_size=1024&#10;device_size=536870912&#10;devices_per_rank=8&#10;dll=true&#10;enable_dram_powerdown=false&#10;eventq_index=0&#10;in_addr_map=true&#10;kvm_map=true&#10;max_accesses_per_row=16&#10;mem_sched_policy=frfcfs&#10;min_writes_per_switch=16&#10;&#10;ull=false&#10;p_state_clk_gate_bins=20&#10;p_state_clk_gate_max=1000000000000&#10;p_state_clk_gate_min=1000&#10;page_policy=open_adaptive&#10;power_model=&#10;qos_masters= &#160;&#160;&#160;&#160;&#160;&#160;&#160;&#160;&#160;&#160;&#160;&#160;&#160;&#160;&#10;qos_policy=Null&#10;qos_priorities=1&#10;qos_priority_escalation=false&#10;qos_q_policy=fifo&#10;qos_syncro_scheduler=false&#10;qos_turnaround_policy=Null&#10;&#13;ange=0:536870911&#10;&#13;anks_per_channel=2&#10;&#13;ead_buffer_size=32&#10;static_backend_latency=10000&#10;static_frontend_latency=10000&#10;tBURST=5000&#10;tCCD_L=0&#10;tCCD_L_WR=0&#10;tCK=1250&#10;tCL=13750&#10;tCS=2500&#10;tRAS=35000&#10;tRCD=13750&#10;tREFI=7800000&#10;tRFC=260000&#10;tRP=13750&#10;tRRD=6000&#10;tRRD_L=0&#10;tRTP=7500&#10;tRTW=2500&#10;tWR=15000&#10;tWTR=7500&#10;tXAW=30000&#10;tXP=6000&#10;tXPDLL=0&#10;tXS=270000&#10;tXSDLL=0&#10;write_buffer_size=64&#10;write_high_thresh_perc=85&#10;write_low_thresh_perc=50">
<path fill="#5e5958" stroke="#000000" d="M36,-163C36,-163 149,-163 149,-163 155,-163 161,-169 161,-175 161,-175 161,-242 161,-242 161,-248 155,-254 149,-254 149,-254 36,-254 36,-254 30,-254 24,-248 24,-242 24,-242 24,-175 24,-175 24,-169 30,-163 36,-163"/>
<text text-anchor="middle" x="92.5" y="-238.8" font-family="Arial" font-size="14.00" fill="#000000">mem_ctrls </text>
<text text-anchor="middle" x="92.5" y="-223.8" font-family="Arial" font-size="14.00" fill="#000000">: DDR3_1600_8x8</text>
</a>
</g>
</g>
<g id="clust15" class="cluster">
<title>cluster_system_cpu</title>
<g id="a_clust15"><a xlink:title="branchPred=system.cpu.branchPred&#10;checker=Null&#10;clk_domain=system.cpu_clk_domain&#10;cpu_id=0&#10;decodeCycleInput=true&#10;decodeInputBufferSize=3&#10;decodeInputWidth=2&#10;decodeToExecuteForwardDelay=1&#10;default_p_state=UNDEFINED&#10;do_checkpoint_insts=true&#10;do_quiesce=true&#10;do_statistics_insts=true&#10;dtb=system.cpu.dtb&#10;enableIdling=true&#10;eventq_index=0&#10;executeAllowEarlyMemoryIssue=true&#10;executeBranchDelay=1&#10;executeCommitLimit=2&#10;executeCycleInput=true&#10;executeFuncUnits=system.cpu.executeFuncUnits&#10;executeInputBufferSize=7&#10;executeInputWidth=2&#10;executeIssueLimit=2&#10;executeLSQMaxStoreBufferStoresPerCycle=2&#10;executeLSQRequestsQueueSize=1&#10;executeLSQStoreBufferSize=5&#10;executeLSQTransfersQueueSize=2&#10;executeMaxAccessesInMemory=2&#10;executeMemoryCommitLimit=1&#10;executeMemoryIssueLimit=1&#10;executeMemoryWidth=0&#10;executeSetTraceTimeOnCommit=true&#10;executeSetTraceTimeOnIssue=false&#10;fetch1FetchLimit=1&#10;fetch1LineSnapWidth=0&#10;fetch1LineWidth=0&#10;fetch1ToFetch2BackwardDelay=1&#10;fetch1ToFetch2ForwardDelay=1&#10;fetch2CycleInput=true&#10;fetch2InputBufferSize=2&#10;fetch2ToDecodeForwardDelay=1&#10;function_trace=false&#10;function_trace_start=0&#10;interrupts=system.cpu.interrupts&#10;isa=system.cpu.isa&#10;itb=system.cpu.itb&#10;max_insts_all_threads=0&#10;max_insts_any_thread=0&#10;&#10;umThreads=1&#10;p_state_clk_gate_bins=20&#10;p_state_clk_gate_max=1000000000000&#10;p_state_clk_gate_min=1000&#10;power_gating_on_idle=false&#10;power_model=&#10;profile=0&#10;progress_interval=0&#10;pwr_gating_latency=300&#10;simpoint_start_insts=&#10;socket_id=0&#10;switched_out=false&#10;syscallRetryLatency=10000&#10;system=system&#10;threadPolicy=RoundRobin&#10;tracer=system.cpu.tracer&#10;wait_for_remote_gdb=false&#10;workload=system.cpu.workload">
<path fill="#bbc6d9" stroke="#000000" d="M181,-24C181,-24 687,-24 687,-24 693,-24 699,-30 699,-36 699,-36 699,-334 699,-334 699,-340 693,-346 687,-346 687,-346 181,-346 181,-346 175,-346 169,-340 169,-334 169,-334 169,-36 169,-36 169,-30 175,-24 181,-24"/>
<text text-anchor="middle" x="434" y="-330.8" font-family="Arial" font-size="14.00" fill="#000000">cpu </text>
<text text-anchor="middle" x="434" y="-315.8" font-family="Arial" font-size="14.00" fill="#000000">: MinorCPU</text>
</a>
</g>
</g>
<g id="clust17" class="cluster">
<title>cluster_system_cpu_dtb</title>
<g id="a_clust17"><a xlink:title="eventq_index=0&#10;is_stage2=false&#10;size=64&#10;sys=system&#10;walker=system.cpu.dtb.walker">
<path fill="#bab6ae" stroke="#000000" d="M558,-155C558,-155 679,-155 679,-155 685,-155 691,-161 691,-167 691,-167 691,-288 691,-288 691,-294 685,-300 679,-300 679,-300 558,-300 558,-300 552,-300 546,-294 546,-288 546,-288 546,-167 546,-167 546,-161 552,-155 558,-155"/>
<text text-anchor="middle" x="618.5" y="-284.8" font-family="Arial" font-size="14.00" fill="#000000">dtb </text>
<text text-anchor="middle" x="618.5" y="-269.8" font-family="Arial" font-size="14.00" fill="#000000">: ArmDTB</text>
</a>
</g>
</g>
<g id="clust18" class="cluster">
<title>cluster_system_cpu_dtb_walker</title>
<g id="a_clust18"><a xlink:title="clk_domain=system.cpu_clk_domain&#10;default_p_state=UNDEFINED&#10;eventq_index=0&#10;is_stage2=false&#10;&#10;um_squash_per_cycle=2&#10;p_state_clk_gate_bins=20&#10;p_state_clk_gate_max=1000000000000&#10;p_state_clk_gate_min=1000&#10;power_model=&#10;sys=system">
<path fill="#9f9c95" stroke="#000000" d="M566,-163C566,-163 671,-163 671,-163 677,-163 683,-169 683,-175 683,-175 683,-242 683,-242 683,-248 677,-254 671,-254 671,-254 566,-254 566,-254 560,-254 554,-248 554,-242 554,-242 554,-175 554,-175 554,-169 560,-163 566,-163"/>
<text text-anchor="middle" x="618.5" y="-238.8" font-family="Arial" font-size="14.00" fill="#000000">walker </text>
<text text-anchor="middle" x="618.5" y="-223.8" font-family="Arial" font-size="14.00" fill="#000000">: ArmTableWalker</text>
</a>
</g>
</g>
<g id="clust105" class="cluster">
<title>cluster_system_cpu_icache</title>
<g id="a_clust105"><a xlink:title="addr_ranges=0:18446744073709551615&#10;assoc=2&#10;clk_domain=system.cpu_clk_domain&#10;clusivity=mostly_incl&#10;compressor=Null&#10;data_latency=2&#10;default_p_state=UNDEFINED&#10;demand_mshr_reserve=1&#10;eventq_index=0&#10;is_read_only=true&#10;max_miss_count=0&#10;mshrs=4&#10;p_state_clk_gate_bins=20&#10;p_state_clk_gate_max=1000000000000&#10;p_state_clk_gate_min=1000&#10;power_model=&#10;prefetch_on_access=false&#10;prefetcher=Null&#10;&#13;eplacement_policy=system.cpu.icache.replacement_policy&#10;&#13;esponse_latency=2&#10;sequential_access=false&#10;size=32768&#10;system=system&#10;tag_latency=2&#10;tags=system.cpu.icache.tags&#10;tgts_per_mshr=20&#10;warmup_percentage=0&#10;write_allocator=Null&#10;write_buffers=8&#10;writeback_clean=true">
<path fill="#bab6ae" stroke="#000000" d="M248,-32C248,-32 418,-32 418,-32 424,-32 430,-38 430,-44 430,-44 430,-111 430,-111 430,-117 424,-123 418,-123 418,-123 248,-123 248,-123 242,-123 236,-117 236,-111 236,-111 236,-44 236,-44 236,-38 242,-32 248,-32"/>
<text text-anchor="middle" x="333" y="-107.8" font-family="Arial" font-size="14.00" fill="#000000">icache </text>
<text text-anchor="middle" x="333" y="-92.8" font-family="Arial" font-size="14.00" fill="#000000">: L1_ICache</text>
</a>
</g>
</g>
<g id="clust109" class="cluster">
<title>cluster_system_cpu_dcache</title>
<g id="a_clust109"><a xlink:title="addr_ranges=0:18446744073709551615&#10;assoc=2&#10;clk_domain=system.cpu_clk_domain&#10;clusivity=mostly_incl&#10;compressor=Null&#10;data_latency=2&#10;default_p_state=UNDEFINED&#10;demand_mshr_reserve=1&#10;eventq_index=0&#10;is_read_only=false&#10;max_miss_count=0&#10;mshrs=4&#10;p_state_clk_gate_bins=20&#10;p_state_clk_gate_max=1000000000000&#10;p_state_clk_gate_min=1000&#10;power_model=&#10;prefetch_on_access=false&#10;prefetcher=Null&#10;&#13;eplacement_policy=system.cpu.dcache.replacement_policy&#10;&#13;esponse_latency=2&#10;sequential_access=false&#10;size=65536&#10;system=system&#10;tag_latency=2&#10;tags=system.cpu.dcache.tags&#10;tgts_per_mshr=20&#10;warmup_percentage=0&#10;write_allocator=Null&#10;write_buffers=8&#10;writeback_clean=false">
<path fill="#bab6ae" stroke="#000000" d="M479,-32C479,-32 649,-32 649,-32 655,-32 661,-38 661,-44 661,-44 661,-111 661,-111 661,-117 655,-123 649,-123 649,-123 479,-123 479,-123 473,-123 467,-117 467,-111 467,-111 467,-44 467,-44 467,-38 473,-32 479,-32"/>
<text text-anchor="middle" x="564" y="-107.8" font-family="Arial" font-size="14.00" fill="#000000">dcache </text>
<text text-anchor="middle" x="564" y="-92.8" font-family="Arial" font-size="14.00" fill="#000000">: L1_DCache</text>
</a>
</g>
</g>
<g id="clust117" class="cluster">
<title>cluster_system_cpu_itb</title>
<g id="a_clust117"><a xlink:title="eventq_index=0&#10;is_stage2=false&#10;size=64&#10;sys=system&#10;walker=system.cpu.itb.walker">
<path fill="#bab6ae" stroke="#000000" d="M405,-155C405,-155 526,-155 526,-155 532,-155 538,-161 538,-167 538,-167 538,-288 538,-288 538,-294 532,-300 526,-300 526,-300 405,-300 405,-300 399,-300 393,-294 393,-288 393,-288 393,-167 393,-167 393,-161 399,-155 405,-155"/>
<text text-anchor="middle" x="465.5" y="-284.8" font-family="Arial" font-size="14.00" fill="#000000">itb </text>
<text text-anchor="middle" x="465.5" y="-269.8" font-family="Arial" font-size="14.00" fill="#000000">: ArmITB</text>
</a>
</g>
</g>
<g id="clust118" class="cluster">
<title>cluster_system_cpu_itb_walker</title>
<g id="a_clust118"><a xlink:title="clk_domain=system.cpu_clk_domain&#10;default_p_state=UNDEFINED&#10;eventq_index=0&#10;is_stage2=false&#10;&#10;um_squash_per_cycle=2&#10;p_state_clk_gate_bins=20&#10;p_state_clk_gate_max=1000000000000&#10;p_state_clk_gate_min=1000&#10;power_model=&#10;sys=system">
<path fill="#9f9c95" stroke="#000000" d="M413,-163C413,-163 518,-163 518,-163 524,-163 530,-169 530,-175 530,-175 530,-242 530,-242 530,-248 524,-254 518,-254 518,-254 413,-254 413,-254 407,-254 401,-248 401,-242 401,-242 401,-175 401,-175 401,-169 407,-163 413,-163"/>
<text text-anchor="middle" x="465.5" y="-238.8" font-family="Arial" font-size="14.00" fill="#000000">walker </text>
<text text-anchor="middle" x="465.5" y="-223.8" font-family="Arial" font-size="14.00" fill="#000000">: ArmTableWalker</text>
</a>
</g>
</g>
<!-- system_system_port -->
<g id="node1" class="node">
<title>system_system_port</title>
<path fill="#b6b8bc" stroke="#000000" d="M582,-493.5C582,-493.5 654,-493.5 654,-493.5 660,-493.5 666,-499.5 666,-505.5 666,-505.5 666,-517.5 666,-517.5 666,-523.5 660,-529.5 654,-529.5 654,-529.5 582,-529.5 582,-529.5 576,-529.5 570,-523.5 570,-517.5 570,-517.5 570,-505.5 570,-505.5 570,-499.5 576,-493.5 582,-493.5"/>
<text text-anchor="middle" x="618" y="-507.8" font-family="Arial" font-size="14.00" fill="#000000">system_port</text>
</g>
<!-- system_membus_slave -->
<g id="node3" class="node">
<title>system_membus_slave</title>
<path fill="#586070" stroke="#000000" d="M603,-362.5C603,-362.5 633,-362.5 633,-362.5 639,-362.5 645,-368.5 645,-374.5 645,-374.5 645,-386.5 645,-386.5 645,-392.5 639,-398.5 633,-398.5 633,-398.5 603,-398.5 603,-398.5 597,-398.5 591,-392.5 591,-386.5 591,-386.5 591,-374.5 591,-374.5 591,-368.5 597,-362.5 603,-362.5"/>
<text text-anchor="middle" x="618" y="-376.8" font-family="Arial" font-size="14.00" fill="#000000">slave</text>
</g>
<!-- system_system_port&#45;&gt;system_membus_slave -->
<g id="edge1" class="edge">
<title>system_system_port&#45;&gt;system_membus_slave</title>
<path fill="none" stroke="#000000" d="M618,-493.285C618,-471.3856 618,-434.3861 618,-408.7663"/>
<polygon fill="#000000" stroke="#000000" points="621.5001,-408.5603 618,-398.5603 614.5001,-408.5603 621.5001,-408.5603"/>
</g>
<!-- system_membus_master -->
<g id="node2" class="node">
<title>system_membus_master</title>
<path fill="#586070" stroke="#000000" d="M523.5,-362.5C523.5,-362.5 560.5,-362.5 560.5,-362.5 566.5,-362.5 572.5,-368.5 572.5,-374.5 572.5,-374.5 572.5,-386.5 572.5,-386.5 572.5,-392.5 566.5,-398.5 560.5,-398.5 560.5,-398.5 523.5,-398.5 523.5,-398.5 517.5,-398.5 511.5,-392.5 511.5,-386.5 511.5,-386.5 511.5,-374.5 511.5,-374.5 511.5,-368.5 517.5,-362.5 523.5,-362.5"/>
<text text-anchor="middle" x="542" y="-376.8" font-family="Arial" font-size="14.00" fill="#000000">master</text>
</g>
<!-- system_mem_ctrls_port -->
<g id="node4" class="node">
<title>system_mem_ctrls_port</title>
<path fill="#4b4746" stroke="#000000" d="M111,-171.5C111,-171.5 141,-171.5 141,-171.5 147,-171.5 153,-177.5 153,-183.5 153,-183.5 153,-195.5 153,-195.5 153,-201.5 147,-207.5 141,-207.5 141,-207.5 111,-207.5 111,-207.5 105,-207.5 99,-201.5 99,-195.5 99,-195.5 99,-183.5 99,-183.5 99,-177.5 105,-171.5 111,-171.5"/>
<text text-anchor="middle" x="126" y="-185.8" font-family="Arial" font-size="14.00" fill="#000000">port</text>
</g>
<!-- system_membus_master&#45;&gt;system_mem_ctrls_port -->
<g id="edge2" class="edge">
<title>system_membus_master&#45;&gt;system_mem_ctrls_port</title>
<path fill="none" stroke="#000000" d="M511.4853,-379.708C426.4113,-377.2251 191.0986,-368.3832 165,-346 128.113,-314.3642 123.3154,-253.6983 124.0515,-217.9012"/>
<polygon fill="#000000" stroke="#000000" points="127.5585,-217.7717 124.4282,-207.6499 120.5632,-217.5146 127.5585,-217.7717"/>
</g>
<!-- system_cpu_dtb_walker_port -->
<g id="node7" class="node">
<title>system_cpu_dtb_walker_port</title>
<path fill="#7f7c77" stroke="#000000" d="M603,-171.5C603,-171.5 633,-171.5 633,-171.5 639,-171.5 645,-177.5 645,-183.5 645,-183.5 645,-195.5 645,-195.5 645,-201.5 639,-207.5 633,-207.5 633,-207.5 603,-207.5 603,-207.5 597,-207.5 591,-201.5 591,-195.5 591,-195.5 591,-183.5 591,-183.5 591,-177.5 597,-171.5 603,-171.5"/>
<text text-anchor="middle" x="618" y="-185.8" font-family="Arial" font-size="14.00" fill="#000000">port</text>
</g>
<!-- system_membus_slave&#45;&gt;system_cpu_dtb_walker_port -->
<g id="edge6" class="edge">
<title>system_membus_slave&#45;&gt;system_cpu_dtb_walker_port</title>
<path fill="none" stroke="#000000" d="M618,-352.09C618,-312.3133 618,-241.1585 618,-207.7584"/>
<polygon fill="#000000" stroke="#000000" points="614.5001,-352.1861 618,-362.1861 621.5001,-352.1862 614.5001,-352.1861"/>
</g>
<!-- system_cpu_icache_mem_side -->
<g id="node8" class="node">
<title>system_cpu_icache_mem_side</title>
<path fill="#94918b" stroke="#000000" d="M350,-40.5C350,-40.5 410,-40.5 410,-40.5 416,-40.5 422,-46.5 422,-52.5 422,-52.5 422,-64.5 422,-64.5 422,-70.5 416,-76.5 410,-76.5 410,-76.5 350,-76.5 350,-76.5 344,-76.5 338,-70.5 338,-64.5 338,-64.5 338,-52.5 338,-52.5 338,-46.5 344,-40.5 350,-40.5"/>
<text text-anchor="middle" x="380" y="-54.8" font-family="Arial" font-size="14.00" fill="#000000">mem_side</text>
</g>
<!-- system_membus_slave&#45;&gt;system_cpu_icache_mem_side -->
<g id="edge3" class="edge">
<title>system_membus_slave&#45;&gt;system_cpu_icache_mem_side</title>
<path fill="none" stroke="#000000" d="M654.492,-370.9252C667.0161,-365.7021 679.7058,-357.8023 687,-346 698.1572,-327.9473 700.9048,-171.0324 687,-155 654.0544,-117.0134 509.2891,-142.6396 463,-123 437.6325,-112.2371 413.3137,-91.7305 397.6323,-76.7193"/>
<polygon fill="#000000" stroke="#000000" points="653.2063,-367.6689 645.0392,-374.4179 655.6324,-374.2351 653.2063,-367.6689"/>
</g>
<!-- system_cpu_dcache_mem_side -->
<g id="node10" class="node">
<title>system_cpu_dcache_mem_side</title>
<path fill="#94918b" stroke="#000000" d="M581,-40.5C581,-40.5 641,-40.5 641,-40.5 647,-40.5 653,-46.5 653,-52.5 653,-52.5 653,-64.5 653,-64.5 653,-70.5 647,-76.5 641,-76.5 641,-76.5 581,-76.5 581,-76.5 575,-76.5 569,-70.5 569,-64.5 569,-64.5 569,-52.5 569,-52.5 569,-46.5 575,-40.5 581,-40.5"/>
<text text-anchor="middle" x="611" y="-54.8" font-family="Arial" font-size="14.00" fill="#000000">mem_side</text>
</g>
<!-- system_membus_slave&#45;&gt;system_cpu_dcache_mem_side -->
<g id="edge4" class="edge">
<title>system_membus_slave&#45;&gt;system_cpu_dcache_mem_side</title>
<path fill="none" stroke="#000000" d="M654.8713,-375.6474C673.1857,-371.1691 693.7538,-362.5579 705,-346 752.6957,-275.7772 736.9703,-233.6386 705,-155 691.5233,-121.851 660.5794,-93.8563 637.8607,-76.6955"/>
<polygon fill="#000000" stroke="#000000" points="654.0615,-372.2412 645.0019,-377.7344 655.5097,-379.0897 654.0615,-372.2412"/>
</g>
<!-- system_cpu_itb_walker_port -->
<g id="node12" class="node">
<title>system_cpu_itb_walker_port</title>
<path fill="#7f7c77" stroke="#000000" d="M480,-171.5C480,-171.5 510,-171.5 510,-171.5 516,-171.5 522,-177.5 522,-183.5 522,-183.5 522,-195.5 522,-195.5 522,-201.5 516,-207.5 510,-207.5 510,-207.5 480,-207.5 480,-207.5 474,-207.5 468,-201.5 468,-195.5 468,-195.5 468,-183.5 468,-183.5 468,-177.5 474,-171.5 480,-171.5"/>
<text text-anchor="middle" x="495" y="-185.8" font-family="Arial" font-size="14.00" fill="#000000">port</text>
</g>
<!-- system_membus_slave&#45;&gt;system_cpu_itb_walker_port -->
<g id="edge5" class="edge">
<title>system_membus_slave&#45;&gt;system_cpu_itb_walker_port</title>
<path fill="none" stroke="#000000" d="M587.3556,-356.7855C585.5818,-355.7801 583.7907,-354.8425 582,-354 568.7349,-347.7589 560.8367,-355.8732 550,-346 509.4455,-309.0511 498.7915,-240.4314 495.9945,-207.7363"/>
<polygon fill="#000000" stroke="#000000" points="585.6742,-359.8634 595.9966,-362.2509 589.4161,-353.9474 585.6742,-359.8634"/>
</g>
<!-- system_cpu_icache_port -->
<g id="node5" class="node">
<title>system_cpu_icache_port</title>
<path fill="#959ead" stroke="#000000" d="M189,-171.5C189,-171.5 257,-171.5 257,-171.5 263,-171.5 269,-177.5 269,-183.5 269,-183.5 269,-195.5 269,-195.5 269,-201.5 263,-207.5 257,-207.5 257,-207.5 189,-207.5 189,-207.5 183,-207.5 177,-201.5 177,-195.5 177,-195.5 177,-183.5 177,-183.5 177,-177.5 183,-171.5 189,-171.5"/>
<text text-anchor="middle" x="223" y="-185.8" font-family="Arial" font-size="14.00" fill="#000000">icache_port</text>
</g>
<!-- system_cpu_icache_cpu_side -->
<g id="node9" class="node">
<title>system_cpu_icache_cpu_side</title>
<path fill="#94918b" stroke="#000000" d="M256,-40.5C256,-40.5 308,-40.5 308,-40.5 314,-40.5 320,-46.5 320,-52.5 320,-52.5 320,-64.5 320,-64.5 320,-70.5 314,-76.5 308,-76.5 308,-76.5 256,-76.5 256,-76.5 250,-76.5 244,-70.5 244,-64.5 244,-64.5 244,-52.5 244,-52.5 244,-46.5 250,-40.5 256,-40.5"/>
<text text-anchor="middle" x="282" y="-54.8" font-family="Arial" font-size="14.00" fill="#000000">cpu_side</text>
</g>
<!-- system_cpu_icache_port&#45;&gt;system_cpu_icache_cpu_side -->
<g id="edge7" class="edge">
<title>system_cpu_icache_port&#45;&gt;system_cpu_icache_cpu_side</title>
<path fill="none" stroke="#000000" d="M231.2037,-171.285C241.1989,-149.0923 258.1783,-111.3923 269.7302,-85.7431"/>
<polygon fill="#000000" stroke="#000000" points="272.9507,-87.1155 273.866,-76.5603 266.5681,-84.2409 272.9507,-87.1155"/>
</g>
<!-- system_cpu_dcache_port -->
<g id="node6" class="node">
<title>system_cpu_dcache_port</title>
<path fill="#959ead" stroke="#000000" d="M299,-171.5C299,-171.5 373,-171.5 373,-171.5 379,-171.5 385,-177.5 385,-183.5 385,-183.5 385,-195.5 385,-195.5 385,-201.5 379,-207.5 373,-207.5 373,-207.5 299,-207.5 299,-207.5 293,-207.5 287,-201.5 287,-195.5 287,-195.5 287,-183.5 287,-183.5 287,-177.5 293,-171.5 299,-171.5"/>
<text text-anchor="middle" x="336" y="-185.8" font-family="Arial" font-size="14.00" fill="#000000">dcache_port</text>
</g>
<!-- system_cpu_dcache_cpu_side -->
<g id="node11" class="node">
<title>system_cpu_dcache_cpu_side</title>
<path fill="#94918b" stroke="#000000" d="M487,-40.5C487,-40.5 539,-40.5 539,-40.5 545,-40.5 551,-46.5 551,-52.5 551,-52.5 551,-64.5 551,-64.5 551,-70.5 545,-76.5 539,-76.5 539,-76.5 487,-76.5 487,-76.5 481,-76.5 475,-70.5 475,-64.5 475,-64.5 475,-52.5 475,-52.5 475,-46.5 481,-40.5 487,-40.5"/>
<text text-anchor="middle" x="513" y="-54.8" font-family="Arial" font-size="14.00" fill="#000000">cpu_side</text>
</g>
<!-- system_cpu_dcache_port&#45;&gt;system_cpu_dcache_cpu_side -->
<g id="edge8" class="edge">
<title>system_cpu_dcache_port&#45;&gt;system_cpu_dcache_cpu_side</title>
<path fill="none" stroke="#000000" d="M364.339,-171.2273C384.1612,-158.2157 411.0837,-140.0781 434,-123 451.01,-110.3235 469.4022,-95.3845 484.157,-83.0775"/>
<polygon fill="#000000" stroke="#000000" points="486.5359,-85.6504 491.948,-76.5422 482.0372,-80.2874 486.5359,-85.6504"/>
</g>
</g>
</svg>
